<svg id="Calque_1" data-name="Calque 1" xmlns="http://www.w3.org/2000/svg" viewBox="0 0 205 205"><defs><style>.cls-1{fill:#8d4b97;}.cls-2{fill:#fff;}</style></defs><circle class="cls-1" cx="101.91" cy="102.69" r="102.31"/><path class="cls-2" d="M106.29,85.46c1.4,2.14,2.78,4.16,3,6.71A6.17,6.17,0,0,1,104,99a4.57,4.57,0,0,1-1.55-.15,8.16,8.16,0,0,0,2-1.49c1.63-1.78,1.79-3.94,1.53-6.19-.11-1-.27-1.89-.4-2.84A3.46,3.46,0,0,1,106.29,85.46Z"/><path class="cls-2" d="M113.41,85.62a11.76,11.76,0,0,0-4.62-5A27.17,27.17,0,0,1,105,78a4.4,4.4,0,0,1-1.68-3.4c2,1,4.15,1.51,6.06,2.53A9,9,0,0,1,113,80.46,5.61,5.61,0,0,1,113.41,85.62Z"/><path class="cls-2" d="M108.79,54.44c-1.42,3.32-1,6.71-1.67,10a7.09,7.09,0,0,1-1.38,3.31,3.59,3.59,0,0,1-1.4,1c.1-3.15-.67-6.18.11-9.21C105,57.22,106.06,55.29,108.79,54.44Z"/><path class="cls-2" d="M105.69,80.15c2.78,1.82,5.61,3.4,6.71,6.74a6.34,6.34,0,0,1-.41,5.44,4,4,0,0,1-1.26,1.34c.31-3.67-1.67-6.29-3.5-9-.82-1.21-1.79-2.36-1.63-4C105.62,80.57,105.65,80.43,105.69,80.15Z"/><path class="cls-2" d="M114.5,161.29c-2.94-.16-5.59.83-8.33,1.09a10.5,10.5,0,0,1-4.25-.28,4.14,4.14,0,0,1-2.28-1.68c3.69-.41,7.08-2.08,10.82-1.6A5.09,5.09,0,0,1,114.5,161.29Z"/><path class="cls-2" d="M151.43,52.42c-2.92,0-5.34,1.17-7.83,2a16.93,16.93,0,0,1-3.71.92,4.21,4.21,0,0,1-3.14-.86c3.07-1.61,5.76-3.84,9.32-4.13A5.68,5.68,0,0,1,151.43,52.42Z"/><path class="cls-2" d="M90.44,147.42c-3.14.27-6,1.6-9.06,1.72A7.78,7.78,0,0,1,77,148.3a3.12,3.12,0,0,1-1.43-1.48c3.21,0,6.15-1.29,9.27-1.43a7.6,7.6,0,0,1,4.18.71A3.42,3.42,0,0,1,90.44,147.42Z"/><path class="cls-2" d="M84.6,144.08c-2.54.15-4.81.94-7.18,1.25a11.12,11.12,0,0,1-5-.3,4.53,4.53,0,0,1-2.7-2.22c3.44.22,6.61-1.06,9.92-.95a6.81,6.81,0,0,1,3.74,1A3.88,3.88,0,0,1,84.6,144.08Z"/><path class="cls-2" d="M100.33,58.92c-3.44-.78-6.72.13-10,0-1.72-.05-3.38-.22-4.68-1.83,2.31-.48,4.45-1.25,6.71-1.54a10.18,10.18,0,0,1,4.81.44A5,5,0,0,1,100.33,58.92Z"/><path class="cls-2" d="M108.52,63.91c.47-2.83.29-5.67,1.27-8.34.86-2.33,2.13-4.3,4.81-4.85.15,0,.3,0,.63,0-1.88,2.72-2.12,5.88-3.11,8.78a9.61,9.61,0,0,1-1.44,3A3.58,3.58,0,0,1,108.52,63.91Z"/><path class="cls-2" d="M78.88,140.54c-3.42.11-6.62,1.3-10,.89a6,6,0,0,1-4.52-2.34c-.08-.13-.14-.27-.29-.57,3.59.37,7-.74,10.46-.37A5.27,5.27,0,0,1,78.88,140.54Z"/><path class="cls-2" d="M93.64,157.16c3-.27,5.6-1.53,8.42-1.86a9.47,9.47,0,0,1,4.07.25,4.43,4.43,0,0,1,2.41,1.75,8.16,8.16,0,0,1-1.86.29c-2,.46-4,.93-6.06,1.33a9.59,9.59,0,0,1-4.55-.06A4.29,4.29,0,0,1,93.64,157.16Z"/><path class="cls-2" d="M54.17,118.63c-2.46-.74-4.87-.75-7.18-1.34a12,12,0,0,1-4.1-1.74,5.07,5.07,0,0,1-2.2-3.53c3,1.56,6.26,1.53,9.22,2.66a7.92,7.92,0,0,1,3.43,2.17A3.93,3.93,0,0,1,54.17,118.63Z"/><path class="cls-2" d="M50.11,113.35c-2.71-.94-5.48-1.09-8-2.16a9.4,9.4,0,0,1-3.56-2.51,4.3,4.3,0,0,1-1.1-3.11,21.1,21.1,0,0,0,3.6,1.78c1.6.54,3.18,1.12,4.76,1.7a8.63,8.63,0,0,1,2.94,1.76A4,4,0,0,1,50.11,113.35Z"/><path class="cls-2" d="M94.62,54.14c-3.13-.17-5.85,1-8.67,1.58a10.29,10.29,0,0,1-4.06.34,3.72,3.72,0,0,1-2-1c3.52-1.53,6.73-3.78,10.8-3.26A5.31,5.31,0,0,1,94.62,54.14Z"/><path class="cls-2" d="M105.46,163.77c3.31-.19,6.45-1.45,9.78-1.11a6.8,6.8,0,0,1,4,1.51,3.49,3.49,0,0,1,1,1.43c-3.8-.48-7.42.93-11.12.35A4.78,4.78,0,0,1,105.46,163.77Z"/><path class="cls-2" d="M100.82,74c-.27-2.72-1.15-5.22-1.18-7.85a10.26,10.26,0,0,1,.61-3.85,5,5,0,0,1,2.85-3c-.78,3.17,0,6.22,0,9.29a9.35,9.35,0,0,1-.61,3.55A3.6,3.6,0,0,1,100.82,74Z"/><path class="cls-2" d="M44.7,118c2.89,1.19,5.89,1,8.71,1.82a12.7,12.7,0,0,1,2.93,1.13,4.23,4.23,0,0,1,2.17,2.71c-3.09-.76-6.25-.33-9.21-1.38C47.24,121.52,45.33,120.6,44.7,118Z"/><path class="cls-2" d="M37,69.35a19.75,19.75,0,0,0,2.09,6,20.42,20.42,0,0,1,2,5.33,4.94,4.94,0,0,1-.53,3.13c-2.12-3.18-4.81-5.88-5.2-9.8A5.4,5.4,0,0,1,37,69.35Z"/><path class="cls-2" d="M113.32,59.93c.83-2.45,1.17-4.93,2.27-7.18a8,8,0,0,1,4.49-4.44,3.67,3.67,0,0,1,2.2-.13c-2.22,2.2-3.1,5-4.47,7.62a11.11,11.11,0,0,1-2,3A3.8,3.8,0,0,1,113.32,59.93Z"/><path class="cls-2" d="M87.57,153.9c2.94-.23,5.52-1.45,8.3-1.84a10.38,10.38,0,0,1,4.08.09,4.39,4.39,0,0,1,2.58,1.76c-3.29.26-6.2,1.76-9.4,2a7.33,7.33,0,0,1-4.18-.71A3.72,3.72,0,0,1,87.57,153.9Z"/><path class="cls-2" d="M58.7,49.44c-1.63,2-2.29,4.35-3.08,6.59A19.45,19.45,0,0,1,53.9,60a4.38,4.38,0,0,1-2.81,2.15c.59-2.83.61-5.7,1.82-8.32a8.06,8.06,0,0,1,3-3.65A4.65,4.65,0,0,1,58.7,49.44Z"/><path class="cls-2" d="M162,96.78c1.18,3.07,3.11,5.77,3.44,9.09a6.72,6.72,0,0,1-.87,4.5,3.16,3.16,0,0,1-1.14,1.13c-.11-3.18-1.54-5.92-2.2-8.86a9.67,9.67,0,0,1-.32-3.59A4,4,0,0,1,162,96.78Z"/><path class="cls-2" d="M129.61,47.13c-2.13,1.42-3.48,3.56-5,5.56a15.94,15.94,0,0,1-2.94,3.25,4.47,4.47,0,0,1-3,1c1.68-3.12,2.69-6.51,5.59-8.73a5.81,5.81,0,0,1,4.81-1.36C129.27,46.86,129.48,46.86,129.61,47.13Z"/><path class="cls-2" d="M160.39,72.38c3,1.55,6.14,2.55,8.41,5.07a5.84,5.84,0,0,1,1.62,5.6c-.06,0-.16,0-.18,0-1.58-2.1-3.79-3.46-5.86-5a17.27,17.27,0,0,1-3-2.75A4.09,4.09,0,0,1,160.39,72.38Z"/><path class="cls-2" d="M43.72,71.86c-.81-3.63-2.19-7.09-1.13-10.84a5.43,5.43,0,0,1,3.31-3.71c-.95,3.32-.16,6.63-.3,9.93a7.1,7.1,0,0,1-.77,3.41A3.48,3.48,0,0,1,43.72,71.86Z"/><path class="cls-2" d="M129.92,137.17c-.83,2.37-1,4.76-1.73,7a10.4,10.4,0,0,1-2.6,4.71,4.52,4.52,0,0,1-2.77,1.28c1.45-3,1.67-6.21,3-9.12a7.43,7.43,0,0,1,2.24-3.15A3,3,0,0,1,129.92,137.17Z"/><path class="cls-2" d="M135.22,133.07c-.95,3.17-.77,6.47-2.09,9.45-.73,1.64-1.63,3.11-3.44,3.75a2.59,2.59,0,0,1-.45.14,2.47,2.47,0,0,1-.44,0c1.39-3.15,1.36-6.62,2.69-9.72C132.21,135.07,133.12,133.57,135.22,133.07Z"/><path class="cls-2" d="M93.59,94.35a7.33,7.33,0,0,0,6.06.38,5.82,5.82,0,0,0,3.18-3,7.94,7.94,0,0,1,.39-.77,1.33,1.33,0,0,1,1.16-.73c.49.07.3.69.35,1a5.72,5.72,0,0,1-3.2,6.34A6.1,6.1,0,0,1,94.41,96,3.86,3.86,0,0,1,93.59,94.35Z"/><path class="cls-2" d="M83.12,166.05c-.92,2.81-.61,5.62-.89,8.36a18.18,18.18,0,0,1-.61,3.29,3.82,3.82,0,0,1-2,2.55,22,22,0,0,1-.29-9.72A5.64,5.64,0,0,1,83.12,166.05Z"/><path class="cls-2" d="M33.62,91.27c1.8,2.31,4.17,3.62,6.31,5.2a16.3,16.3,0,0,1,2.61,2.37,4.28,4.28,0,0,1,1.14,3.37c-3-1.81-6.46-2.84-8.74-5.65A5.55,5.55,0,0,1,33.62,91.27Z"/><path class="cls-2" d="M162.59,62.41c-3.15-1.31-6.33-.84-9.41-1.21a10.34,10.34,0,0,1-3.06-.71,3.48,3.48,0,0,1-1.85-1.71c3.25-.28,6.38-1.33,9.6-.45C160,58.9,161.86,59.84,162.59,62.41Z"/><path class="cls-2" d="M67.63,54.4c1.83-1.82,3.26-3.88,5.27-5.38a9.57,9.57,0,0,1,4.31-1.92A5,5,0,0,1,81,48c-3,1-5.14,3.11-7.55,4.79a10.72,10.72,0,0,1-3.37,1.75A3.8,3.8,0,0,1,67.63,54.4Z"/><path class="cls-2" d="M124.44,140.91c-1,2.19-1.27,4.45-2,6.59a12.46,12.46,0,0,1-2.29,4.37,4.88,4.88,0,0,1-3.41,1.77c1.64-3.15,1.95-6.67,3.66-9.68A5.19,5.19,0,0,1,124.44,140.91Z"/><path class="cls-2" d="M73.52,47c-2.87,1.62-4.56,4.23-6.68,6.39a9.76,9.76,0,0,1-2.77,2.18,3.56,3.56,0,0,1-2.22.37c-.19-.28.06-.42.17-.59.92-1.53,1.8-3.08,2.81-4.55a10,10,0,0,1,4.63-3.86A5.25,5.25,0,0,1,73.52,47Z"/><path class="cls-2" d="M163.33,84.29c1.9,2.36,4.24,4.15,5.61,6.77A8.5,8.5,0,0,1,170,95.27a4.1,4.1,0,0,1-.95,2.63c-.37-.79-.68-1.56-1.07-2.29-.89-1.66-2.07-3.13-3.1-4.7a17.17,17.17,0,0,1-1.65-3.22A4.29,4.29,0,0,1,163.33,84.29Z"/><path class="cls-2" d="M124.51,54.89c1.37-1.73,2.6-3.39,4-5a9.67,9.67,0,0,1,4.57-3,5.09,5.09,0,0,1,4.06.35c0,.07,0,.16,0,.18a22.83,22.83,0,0,0-5.56,4.16,16.59,16.59,0,0,1-4,3A4.1,4.1,0,0,1,124.51,54.89Z"/><path class="cls-2" d="M88.1,50.45c-3,.34-5.32,1.85-7.81,3a11.9,11.9,0,0,1-4,1.27,3.81,3.81,0,0,1-2.43-.5c.15-.42.57-.55.88-.78a36.54,36.54,0,0,1,5-3.41,9.08,9.08,0,0,1,5.62-1.08A4.57,4.57,0,0,1,88.1,50.45Z"/><path class="cls-2" d="M153.15,62.48c2.92.39,5.76,0,8.47,1a8.71,8.71,0,0,1,3.93,2.61,4.18,4.18,0,0,1,.95,2.71c-2.93-1.88-6.28-2-9.36-3.09-1.48-.5-3-1-3.74-2.6C153.34,63,153.28,62.81,153.15,62.48Z"/><path class="cls-2" d="M150.5,128.49c.55-3.66-.33-7.18.29-10.68a5.45,5.45,0,0,1,2.59-4c0,3.49.94,6.83.27,10.23A5.74,5.74,0,0,1,150.5,128.49Z"/><path class="cls-2" d="M130.23,176.38c-3-1.42-6.21-1.24-9.24-1.82-2.52-.48-4-1.35-4.87-3.14,3.43.31,6.86-.48,10.15.8A5.72,5.72,0,0,1,130.23,176.38Z"/><path class="cls-2" d="M142.68,56.28c2.76-.94,5.18-2.24,7.93-2.47a8.48,8.48,0,0,1,4.73.8,4.29,4.29,0,0,1,2.1,2.21c-3.57-.64-6.88.63-10.29.74a5.58,5.58,0,0,1-4-1A4,4,0,0,0,142.68,56.28Z"/><path class="cls-2" d="M40.88,62.83c-.28,3.14.84,5.87,1.41,8.69.32,1.56.71,3.13.13,4.72a2.85,2.85,0,0,1-.85,1.36c-1.45-3.38-3.55-6.48-3.21-10.36A5.46,5.46,0,0,1,40.88,62.83Z"/><path class="cls-2" d="M169.12,75.87c-2.46-2.37-5.6-3.21-8.36-4.76-1.47-.83-3-1.69-3.41-3.54,0-.11,0-.23-.06-.49,2.94.92,6,1.17,8.58,2.92,1.89,1.28,3.4,2.83,3.31,5.34A4.54,4.54,0,0,1,169.12,75.87Z"/><path class="cls-2" d="M159.9,102.71c.78,3.39,2.41,6.44,2.16,9.92a6.31,6.31,0,0,1-1.29,3.82,3.65,3.65,0,0,1-1.34,1c.24-3.76-1.27-7.21-1.18-10.85A5.18,5.18,0,0,1,159.9,102.71Z"/><path class="cls-2" d="M35,98.51c2,2,4.48,2.87,6.74,4.08A14.43,14.43,0,0,1,45.21,105a3.82,3.82,0,0,1,1.27,2.9c-2.84-1.3-5.95-1.78-8.47-3.64C36.14,102.92,34.72,101.28,35,98.51Z"/><path class="cls-2" d="M144.93,124.06c-.53,3,0,5.82-.65,8.61a9.79,9.79,0,0,1-1.49,3.68,4.85,4.85,0,0,1-2.67,1.83c1-2.92.74-5.86,1.27-8.7a11.73,11.73,0,0,1,1-3.17A4.13,4.13,0,0,1,144.93,124.06Z"/><path class="cls-2" d="M170.19,90.59c-1.07-2.29-2.94-3.92-4.61-5.7a19.15,19.15,0,0,1-2.66-3.37,4.29,4.29,0,0,1-.51-3.34c2.59,2.12,5.57,3.66,7.31,6.56,1,1.65,1.6,3.42.83,5.37a1.5,1.5,0,0,1-.16.34S170.29,90.52,170.19,90.59Z"/><path class="cls-2" d="M163.16,90.57c1.83,3.11,4.4,5.75,5,9.45a5.48,5.48,0,0,1-1.42,5c-.64-3.74-3-6.62-3.95-10.09A4.92,4.92,0,0,1,163.16,90.57Z"/><path class="cls-2" d="M118.76,144.36c-1.24,2.48-1.59,5.07-2.61,7.44a11.68,11.68,0,0,1-2.19,3.56,4.87,4.87,0,0,1-3.26,1.57c1.67-3.23,2-6.84,4-9.82A5.33,5.33,0,0,1,118.76,144.36Z"/><path class="cls-2" d="M81.48,150.46c3.08-.1,5.74-1.35,8.6-1.67a9.92,9.92,0,0,1,3.8.12,4.11,4.11,0,0,1,2.54,1.73c-3.29.34-6.24,1.85-9.5,2-1.87.06-3.65-.14-5-1.61C81.8,150.88,81.71,150.75,81.48,150.46Z"/><path class="cls-2" d="M134.69,142.37c.85-2.58,1-5.31,1.54-7.94a9.36,9.36,0,0,1,2-4.49,3.63,3.63,0,0,1,2-1.22c-.62,3-.41,6-1.27,8.92a7.87,7.87,0,0,1-2,3.62,2.82,2.82,0,0,1-2.22,1.1Z"/><path class="cls-2" d="M98.34,65c-.26,2.8.62,5.34,1,7.94a12.33,12.33,0,0,1,.11,4.65,3.49,3.49,0,0,1-1.2,2c-1.24-3.56-3.09-6.87-2.46-10.78A4.9,4.9,0,0,1,98.34,65Z"/><path class="cls-2" d="M125.49,170.56c-3.45-.91-6.95,0-10.38-.61a5.34,5.34,0,0,1-4.18-2.54c3.39,0,6.63-1,9.95-.34C123.23,167.53,124.9,168.73,125.49,170.56Z"/><path class="cls-2" d="M66,47.48a19.17,19.17,0,0,0-4.19,5.66,20,20,0,0,1-2.73,3.91,4.35,4.35,0,0,1-3,1.46c1.27-3,1.86-6.26,4.1-8.73A6,6,0,0,1,66,47.48Z"/><path class="cls-2" d="M83.4,175.39c.45-2.74.14-5.45.76-8.08a9.86,9.86,0,0,1,1.55-3.67,4.75,4.75,0,0,1,3.08-2c-1.24,3-1.13,6.15-1.94,9.12a9.38,9.38,0,0,1-1.34,3.15A3.41,3.41,0,0,1,83.4,175.39Z"/><path class="cls-2" d="M63.24,128.31c-3.08-.47-6,0-8.92-.66a8.58,8.58,0,0,1-3.85-1.79,4.12,4.12,0,0,1-1.42-2.25c3.17.94,6.4.62,9.49,1.35C60.48,125.42,62.24,126.12,63.24,128.31Z"/><path class="cls-2" d="M53.83,128.9c3.29.82,6.65.15,9.91.82a7.17,7.17,0,0,1,3.45,1.54,2.53,2.53,0,0,1,.9,1.39c-3.28-.23-6.53.53-9.75-.22a6.82,6.82,0,0,1-3.72-2A2.84,2.84,0,0,1,53.83,128.9Z"/><path class="cls-2" d="M149.33,119.12c-.34,2.88.3,5.64-.07,8.41a10,10,0,0,1-1.33,4.05,4.44,4.44,0,0,1-2.47,1.91c.89-3.42.2-6.83.91-10.15C146.83,121.18,147.63,119.91,149.33,119.12Z"/><path class="cls-2" d="M73.41,136.8c-3.1-.17-6,.73-8.94.41a7.73,7.73,0,0,1-4.58-1.7,4.08,4.08,0,0,1-1.07-1.57c1,.07,1.91.16,2.82.17,2,0,3.94-.3,5.92-.14a11.49,11.49,0,0,1,3.29.58A4.31,4.31,0,0,1,73.41,136.8Z"/><path class="cls-2" d="M46.94,66.57c-.06-3-.55-6,.28-8.95.66-2.35,1.89-4.24,4.44-4.89.07.09.14.16.13.18-1.44,3-1.38,6.4-2.1,9.59a6.93,6.93,0,0,1-1.44,3.19A2.33,2.33,0,0,1,46.94,66.57Z"/><path class="cls-2" d="M155.13,123.14c.29-2.74-.23-5.26-.42-7.79a11.82,11.82,0,0,1,.5-4.62,4.12,4.12,0,0,1,1.78-2.31c.41,3.71,1.65,7.23.88,10.92A5.13,5.13,0,0,1,155.13,123.14Z"/><path class="cls-2" d="M33.44,83.89a22.65,22.65,0,0,0,4.65,5.37,20.46,20.46,0,0,1,2.67,3,4.83,4.83,0,0,1,1,3.77c-.28.15-.42-.1-.58-.22-1.45-1-2.94-2-4.31-3.17-2-1.63-3.66-3.5-3.93-6.22A4,4,0,0,1,33.44,83.89Z"/><path class="cls-2" d="M130.6,54.09c2.55-2,4.58-4.5,7.65-5.61a7.2,7.2,0,0,1,4.49-.33,3.67,3.67,0,0,1,1.81,1.09c-2.75.55-4.88,2.12-7.16,3.42a14.41,14.41,0,0,1-3.72,1.7A4.25,4.25,0,0,1,130.6,54.09Z"/><path class="cls-2" d="M34.51,76.4c.94,2.8,2.76,4.84,4.28,7.06,1,1.43,2.05,2.86,2.13,4.72A3.19,3.19,0,0,1,40.61,90c-2.36-2.57-5.26-4.58-6.54-8A5.93,5.93,0,0,1,34.51,76.4Z"/><path class="cls-2" d="M91.38,78.09c.68,3,2.56,5.14,4.61,7.14a20.62,20.62,0,0,1,2.5,2.62c.36.5.81,1.17.5,1.65s-1,0-1.46-.17a10.49,10.49,0,0,1-5.87-3.87,6.68,6.68,0,0,1-1.22-5.69A3.15,3.15,0,0,1,91.38,78.09Z"/><path class="cls-2" d="M94.39,71.08c.11,3,1.36,5.41,2.29,8,.41,1.1.8,2.21,1.13,3.34a3.09,3.09,0,0,1-.24,2.5c-3.44-2.15-5.84-7.43-5-11A4.89,4.89,0,0,1,94.39,71.08Z"/><path class="cls-2" d="M88.11,171.06c.71-2.52.74-5,1.4-7.38a9.26,9.26,0,0,1,2.78-4.91c.2-.17.46-.61.77-.19s1.06.45.86,1.21c-.53,2-1,4-1.55,6a10.52,10.52,0,0,1-1.54,3.37A4.34,4.34,0,0,1,88.11,171.06Z"/><path class="cls-2" d="M90.54,86.36c2.53,3.1,5.84,4.36,9.6,4.69l.38,0c.32,0,.69.09.84.37s-.19.56-.37.8a3.84,3.84,0,0,1-2.3,1.44A7.16,7.16,0,0,1,90.37,88,3.29,3.29,0,0,1,90.54,86.36Z"/><path class="cls-2" d="M120.76,175.81c3,.65,6,.48,8.84,1.72a5.79,5.79,0,0,1,1.23.71,1.29,1.29,0,0,1,.46,1.45,1.09,1.09,0,0,1-1.09.79c-3,0-6-.5-8.3-2.69A3.84,3.84,0,0,1,120.76,175.81Z"/><path class="cls-2" d="M77.76,171.05a23.1,23.1,0,0,0,.58,9.57,1.41,1.41,0,0,1-.55,1.7c-.55.31-1.05,0-1.46-.39C74.13,179.8,73.75,172.94,77.76,171.05Z"/><path class="cls-2" d="M112.29,77.47c-2.37-2.09-5.23-2.69-7.85-3.82-.7-.3-1.18-.53-.64-1.39a2.36,2.36,0,0,0,.28-1.1c.06-.8.41-.87,1.12-.67a12.87,12.87,0,0,1,5,2.43A5.3,5.3,0,0,1,112.29,77.47Z"/><path class="cls-2" d="M109.5,156.31a6.49,6.49,0,0,0-2.27-1.73.42.42,0,0,1-.27-.6,12.36,12.36,0,0,1,3.14-5.17,4.07,4.07,0,0,1,2.73-1.09C111.41,150.49,111,153.54,109.5,156.31Z"/><path class="cls-2" d="M91,60.25c3,0,5.88-.7,8.84,0a10.24,10.24,0,0,0-1.15,2.65.48.48,0,0,1-.61.43,15.47,15.47,0,0,1-4.95-1A3.85,3.85,0,0,1,91,60.25Z"/><path class="cls-2" d="M93.33,167.05A64.88,64.88,0,0,0,95,160.7c.15-.56.35-.69.91-.53a9.8,9.8,0,0,0,1.79.27c.47.06.76.34.62.76-.71,2.09-1.49,4.16-3.5,5.4A2.72,2.72,0,0,1,93.33,167.05Z"/><path class="cls-2" d="M106.79,151c-.36.87-.69,1.62-1,2.38a1.14,1.14,0,0,1-1.78.38c-.74-.66-.74-1,0-1.65A4.25,4.25,0,0,1,106.79,151Z"/><path class="cls-2" d="M106,69.3c.3-.33.59-.62.85-.93.8-1,.86-1,1.59.11a4.55,4.55,0,0,1,.39.76c.13.35.23.72.4,1.28Z"/><path class="cls-2" d="M74,180.68a2.6,2.6,0,0,1-1.58-1.53c-.42-.88,0-1.51.78-2.05a13.07,13.07,0,0,0,.8,3.57Z"/><path class="cls-2" d="M128.24,181.65a5.53,5.53,0,0,1-2.07.54,1.24,1.24,0,0,1-1.17-.49c-.16-.22-.37-.51-.17-.77s.4,0,.61.06Z"/><path class="cls-2" d="M100.52,163a2.35,2.35,0,0,1-1.57.45l.43-1.2Z"/><polygon class="cls-2" points="74 180.67 74.02 180.7 74 180.68 74 180.67"/><path class="cls-2" d="M134.69,142.36h0Z"/><path class="cls-2" d="M57.1,109.66a6.7,6.7,0,0,1-3.68-.94,5.62,5.62,0,0,1-2.13-2.54,8.9,8.9,0,0,1-.66-3.44A14.29,14.29,0,0,1,52,96.84a16,16,0,0,1,2.72-4.06,14.28,14.28,0,0,1,3.85-3,9.77,9.77,0,0,1,4.55-1.14,7.34,7.34,0,0,1,3,.51,3.89,3.89,0,0,1,1.71,1.39,3.48,3.48,0,0,1,.54,1.83,4.24,4.24,0,0,1-.78,2.41,3.55,3.55,0,0,1-1.82,1.42l0,0-.12,0-.07,0h0a.66.66,0,0,1-.25,0V95.5l0-.06,0,0v-.12h0l0,0,.07.1,0-.11c.12,0,.37-.23.71-.85a3.43,3.43,0,0,0,.4-1.61,2.41,2.41,0,0,0-.69-1.66A3.73,3.73,0,0,0,63,90.47a7.33,7.33,0,0,0-3.62,1,12.15,12.15,0,0,0-3.23,2.71,15.58,15.58,0,0,0-2.34,3.66,12.1,12.1,0,0,0-1.12,4.94,5.81,5.81,0,0,0,1.07,3.54,3.78,3.78,0,0,0,3.3,1.38,6.27,6.27,0,0,0,2.85-.77,18.79,18.79,0,0,0,3.14-2.09A39.34,39.34,0,0,0,66.24,102c.69-.7,1.35-1.38,2-2l-1.11.16c-.77.13-1.53.28-2.24.46h-.26a.86.86,0,0,1-.91-.91,1.12,1.12,0,0,1,.23-.65,1.05,1.05,0,0,1,.71-.42c1.61-.27,3.39-.49,5.28-.67,3.66-4.34,6.65-7.8,8.87-10.29s4.12-4.15,5.52-4.76A4.42,4.42,0,0,1,86,82.48c1.16,0,1.25.74,1.25,1,0,.48-.33,1-1.07,1.76a18.82,18.82,0,0,0-2.45,3.31,41.88,41.88,0,0,0-2.37,4.59,38.8,38.8,0,0,0-1.63,4.39h.33a2.82,2.82,0,0,1,.42,0,1.29,1.29,0,0,1,.79.35.94.94,0,0,1,.32.69.9.9,0,0,1-1,.91h-.8l-.49,0a16.8,16.8,0,0,0-.48,3.79c0,.31,0,.61,0,.89s.06.55.1.81a7.92,7.92,0,0,0,.4,1.34c0,.07.14.31.24.31s.29,0,.92-.81a1.23,1.23,0,0,1,.9-.5.81.81,0,0,1,.69.38.88.88,0,0,1,0,.93,2.75,2.75,0,0,1-2.47,1.82,2.4,2.4,0,0,1-1.67-.76,4.26,4.26,0,0,1-1-2.25,11.55,11.55,0,0,1-.22-2.26,18.7,18.7,0,0,1,.13-2.07c.06-.52.14-1.06.25-1.62l-2.57,0c-1.11,0-2.22.06-3.3.16a.23.23,0,0,0-.07.07l-.14.11c-.9,1-1.93,2.12-3.05,3.25a44.27,44.27,0,0,1-3.53,3.21,20.27,20.27,0,0,1-3.69,2.44A8.1,8.1,0,0,1,57.1,109.66Zm25.76-23.6a32.82,32.82,0,0,0-2.44,2.61c-1.93,2.27-4.47,5.29-7.55,9L75,97.56l2.51-.08a32.34,32.34,0,0,1,1.62-4.67,42,42,0,0,1,2.33-4.6C82,87.42,82.41,86.7,82.86,86.06Z"/><path class="cls-2" d="M97.13,123.73a3,3,0,0,1-1.84-.6,4.09,4.09,0,0,1-1.22-1.53,4.48,4.48,0,0,1-.44-1.91,6.24,6.24,0,0,1,.65-2.78,11.47,11.47,0,0,1,1.64-2.46,24.61,24.61,0,0,1,2-2.06v-.25a7.87,7.87,0,0,1,.16-1.46,11.8,11.8,0,0,1,.49-1.77,9.7,9.7,0,0,1,.81-1.72,4.77,4.77,0,0,1,1.12-1.3,2.24,2.24,0,0,1,1.42-.5,1.56,1.56,0,0,1,1.16.45,1.59,1.59,0,0,1,.43,1.17,2.73,2.73,0,0,1-.53,1.55,9.91,9.91,0,0,1-1.35,1.55c-.54.51-1.08,1-1.61,1.43s-1,.85-1.34,1.2c.07.4.14.81.2,1.23s.14.84.24,1.26a6.34,6.34,0,0,1,.95-1.17,6.09,6.09,0,0,1,1.32-1,2.89,2.89,0,0,1,1.42-.4,1.91,1.91,0,0,1,1.25.4,2.46,2.46,0,0,1,.76,1,3.62,3.62,0,0,1,.25,1.3,5.08,5.08,0,0,1-.25,1.45,10.39,10.39,0,0,1-.66,1.6c-.27.53-.56,1-.86,1.51a11.18,11.18,0,0,1-.88,1.19l.38.35c.19.16.38.34.58.53s.38.36.53.52a.76.76,0,0,1,.22.35.19.19,0,0,1,0,.11.13.13,0,0,1-.12.07.85.85,0,0,1-.31-.21l-.58-.5-.6-.55-.36-.32a7.45,7.45,0,0,1-2.26,1.66A6.2,6.2,0,0,1,97.13,123.73Zm0-.65a5.6,5.6,0,0,0,2.46-.55,6.74,6.74,0,0,0,2-1.49,11.48,11.48,0,0,1-1.69-2,10,10,0,0,1-1.15-2.32,3.55,3.55,0,0,0-.28.9,5.1,5.1,0,0,0-.07.91,1.78,1.78,0,0,1,0,.29.19.19,0,1,1-.37,0,1.13,1.13,0,0,1,0-.3,5.06,5.06,0,0,1,.16-1.23,5.13,5.13,0,0,1,.43-1.15c-.13-.45-.24-.91-.35-1.37s-.18-.91-.24-1.37a22.25,22.25,0,0,0-1.57,1.84,13.07,13.07,0,0,0-1.37,2.21,5.33,5.33,0,0,0-.55,2.32,4.14,4.14,0,0,0,.3,1.51,3.13,3.13,0,0,0,.9,1.26A2.1,2.1,0,0,0,97.13,123.08Zm1.57-11.39c.28-.25.65-.56,1.12-.92s.94-.76,1.41-1.18a10.1,10.1,0,0,0,1.2-1.29,2.06,2.06,0,0,0,.49-1.21.88.88,0,0,0-.29-.67,1,1,0,0,0-.67-.29,1.43,1.43,0,0,0-1,.44,5,5,0,0,0-.88,1.13,9.37,9.37,0,0,0-.7,1.46c-.19.52-.35,1-.48,1.45A8.24,8.24,0,0,0,98.7,111.69Zm3.26,9a11,11,0,0,0,1-1.45,10.55,10.55,0,0,0,.87-1.79,4.74,4.74,0,0,0,.35-1.7,3.32,3.32,0,0,0-.18-1.06,2.28,2.28,0,0,0-.57-.89,1.45,1.45,0,0,0-1-.35,2.24,2.24,0,0,0-1.19.41,7,7,0,0,0-1.16,1,8.29,8.29,0,0,0-.84,1,11.93,11.93,0,0,0,1,2.61A9.93,9.93,0,0,0,102,120.67Z"/><path class="cls-2" d="M123,109.12a6.19,6.19,0,0,1-4.6-1.64,5.64,5.64,0,0,1-1.62-4.14,5.34,5.34,0,0,1,.75-2.65,8.46,8.46,0,0,1,1.93-2.28A6.74,6.74,0,0,1,122.05,97l.06,0h0l0,0h.19a1,1,0,0,1,1,1,1,1,0,0,1-.72.94,4.76,4.76,0,0,1-.53.19,1.48,1.48,0,0,0-.37.16,6.18,6.18,0,0,0-1.89,1.58,4.63,4.63,0,0,0-1,2,1.68,1.68,0,0,0,0,.2v.33a3.53,3.53,0,0,0,1.07,2.68,4.23,4.23,0,0,0,3.06,1,8.84,8.84,0,0,0,3.6-.73,12.74,12.74,0,0,0,3.12-1.94,19.78,19.78,0,0,0,2.59-2.67,29.19,29.19,0,0,0,2-2.8,2.61,2.61,0,0,0,.17-.28l-1.25.07c-.73,0-1.45,0-2.17,0a7.72,7.72,0,0,1-1.1-.09,3.07,3.07,0,0,1-1.21-.44,1.36,1.36,0,0,1-.66-1.2,2,2,0,0,1,.64-1.32,2,2,0,0,1,1.4-.73,1,1,0,0,1,1.05,1,.91.91,0,0,1-.38.75l.33,0c.79,0,1.58,0,2.35-.08l2.05-.17c.67-1.56,1.28-3.17,1.8-4.79s1-3.15,1.36-4.72c-1.66-.48-3.45-.94-5.32-1.37a26,26,0,0,0-5.85-.71,18.84,18.84,0,0,0-2,.1,8.32,8.32,0,0,0-1.57.39,8.06,8.06,0,0,0-1.66.76,4.65,4.65,0,0,0-1.22,1,1.72,1.72,0,0,0-.42,1.12,1.62,1.62,0,0,0,.65,1.29,2.32,2.32,0,0,0,1.56.58,1,1,0,1,1,0,2,4.78,4.78,0,0,1-2.1-.48,4.18,4.18,0,0,1-1.62-1.34,3.34,3.34,0,0,1-.62-1.94,3.45,3.45,0,0,1,.7-2.11,6.74,6.74,0,0,1,1.68-1.59,10.3,10.3,0,0,1,2.16-1.12,9.35,9.35,0,0,1,2.22-.55,18.3,18.3,0,0,1,2-.1,28.82,28.82,0,0,1,6.29.73c2,.44,3.82.92,5.55,1.44l0-.09c.07-.23.14-.43.21-.61a1.07,1.07,0,0,1,1-.68A1.15,1.15,0,0,1,141,84a.86.86,0,0,1,.39.73,3,3,0,0,1-.14.87c0,.08-.05.17-.08.25l2.14.71c1,.34,2.11.68,3.23,1s2.2.63,3.22.87a11.33,11.33,0,0,0,2.49.35,3.78,3.78,0,0,0,1.26-.2,1.23,1.23,0,0,0,.7-.63,1.73,1.73,0,0,1,.3-.4,1,1,0,0,1,.69-.25,1.38,1.38,0,0,1,.73.22.92.92,0,0,1,.42.76v.08l0,.17v.09l0,0a3,3,0,0,1-1.48,1.59,4.56,4.56,0,0,1-2.17.54,12.64,12.64,0,0,1-2.79-.39c-1.08-.25-2.24-.57-3.45-.94s-2.35-.73-3.44-1.1c-.87-.29-1.6-.53-2.22-.71-.41,1.53-.83,3-1.26,4.52A38.28,38.28,0,0,1,138,96.37l1.36-.11c.75-.07,1.5-.11,2.21-.11a1,1,0,0,1,1.08,1,1,1,0,0,1-1.08,1c-.69,0-1.48,0-2.37.14s-1.53.14-2.19.19a30.64,30.64,0,0,1-2.12,3.41,23.55,23.55,0,0,1-3.12,3.53,16,16,0,0,1-4,2.67A11.19,11.19,0,0,1,123,109.12Z"/></svg>