<svg id="Calque_1" data-name="Calque 1" xmlns="http://www.w3.org/2000/svg" viewBox="0 0 138.79 136.68"><defs><style>.cls-1{font-size:11.02px;font-family:MsMadi-Regular, Ms Madi;}.cls-1,.cls-2{fill:#fff;}</style></defs><text class="cls-1" transform="translate(40.81 90.34)">19 août 2023</text><path class="cls-2" d="M73.8,39.13c1.41,2.16,2.8,4.19,3.06,6.76a6.18,6.18,0,0,1-5.41,6.86,4.65,4.65,0,0,1-1.57-.14,7.9,7.9,0,0,0,2-1.51c1.65-1.79,1.81-4,1.55-6.22-.11-1-.28-1.9-.4-2.86A3.47,3.47,0,0,1,73.8,39.13Z"/><path class="cls-2" d="M81,39.3a11.87,11.87,0,0,0-4.65-5,27.19,27.19,0,0,1-3.84-2.72,4.44,4.44,0,0,1-1.69-3.42c2.06,1,4.17,1.52,6.09,2.55a9,9,0,0,1,3.72,3.4A5.61,5.61,0,0,1,81,39.3Z"/><path class="cls-2" d="M76.31,7.93c-1.42,3.35-1,6.76-1.68,10a7.12,7.12,0,0,1-1.38,3.33,3.5,3.5,0,0,1-1.41,1c.1-3.16-.68-6.2.11-9.25C72.54,10.73,73.57,8.79,76.31,7.93Z"/><path class="cls-2" d="M73.19,33.8c2.8,1.82,5.65,3.41,6.75,6.77A6.37,6.37,0,0,1,79.53,46a4,4,0,0,1-1.26,1.35c.3-3.69-1.69-6.33-3.53-9-.82-1.21-1.79-2.37-1.63-4C73.12,34.22,73.15,34.07,73.19,33.8Z"/><path class="cls-2" d="M82.05,115.41c-3-.17-5.61.83-8.37,1.09a10.65,10.65,0,0,1-4.28-.28,4.18,4.18,0,0,1-2.29-1.7c3.71-.4,7.12-2.08,10.88-1.6A5.08,5.08,0,0,1,82.05,115.41Z"/><path class="cls-2" d="M119.2,5.91c-2.94,0-5.37,1.18-7.88,2a17,17,0,0,1-3.72.92A4.28,4.28,0,0,1,104.43,8c3.09-1.63,5.8-3.87,9.38-4.16A5.7,5.7,0,0,1,119.2,5.91Z"/><path class="cls-2" d="M57.86,101.45c-3.16.27-6,1.61-9.12,1.73a7.68,7.68,0,0,1-4.37-.85,3.09,3.09,0,0,1-1.44-1.48c3.23,0,6.18-1.3,9.33-1.44a7.61,7.61,0,0,1,4.2.72A3.5,3.5,0,0,1,57.86,101.45Z"/><path class="cls-2" d="M52,98.09c-2.56.15-4.85,1-7.23,1.26a11.26,11.26,0,0,1-5-.3A4.59,4.59,0,0,1,37,96.82c3.46.22,6.64-1.07,10-1a7,7,0,0,1,3.76,1A4.16,4.16,0,0,1,52,98.09Z"/><path class="cls-2" d="M67.8,12.44c-3.45-.78-6.75.14-10.07,0-1.73,0-3.4-.22-4.72-1.84,2.33-.48,4.48-1.26,6.76-1.55a10.45,10.45,0,0,1,4.84.44A5,5,0,0,1,67.8,12.44Z"/><path class="cls-2" d="M76,17.47c.47-2.85.29-5.71,1.28-8.4.87-2.34,2.14-4.32,4.83-4.87.15,0,.31,0,.65-.06-1.9,2.74-2.14,5.92-3.14,8.84a10,10,0,0,1-1.44,3A3.69,3.69,0,0,1,76,17.47Z"/><path class="cls-2" d="M46.23,94.53c-3.44.12-6.65,1.31-10,.9a6,6,0,0,1-4.54-2.36,5.09,5.09,0,0,1-.29-.56c3.61.37,7-.75,10.51-.38A5.29,5.29,0,0,1,46.23,94.53Z"/><path class="cls-2" d="M61.08,111.25c3-.27,5.63-1.54,8.47-1.87a9.58,9.58,0,0,1,4.09.25,4.48,4.48,0,0,1,2.42,1.76,8.25,8.25,0,0,1-1.86.29c-2,.46-4.06.94-6.1,1.34a9.72,9.72,0,0,1-4.58-.06A4.3,4.3,0,0,1,61.08,111.25Z"/><path class="cls-2" d="M21.37,72.49c-2.47-.73-4.89-.75-7.21-1.34A12.38,12.38,0,0,1,10,69.4a5.06,5.06,0,0,1-2.21-3.55c3,1.57,6.3,1.53,9.27,2.67a7.94,7.94,0,0,1,3.45,2.19A3.83,3.83,0,0,1,21.37,72.49Z"/><path class="cls-2" d="M17.3,67.18c-2.73-.93-5.52-1.09-8.08-2.16a9.55,9.55,0,0,1-3.58-2.53,4.33,4.33,0,0,1-1.11-3.13,21.33,21.33,0,0,0,3.62,1.79c1.61.54,3.2,1.12,4.79,1.72a8.65,8.65,0,0,1,3,1.76A4.16,4.16,0,0,1,17.3,67.18Z"/><path class="cls-2" d="M62.06,7.64c-3.15-.18-5.88,1-8.71,1.58a10.29,10.29,0,0,1-4.09.34,3.65,3.65,0,0,1-2-1C50.76,7,54,4.73,58.09,5.26A5.31,5.31,0,0,1,62.06,7.64Z"/><path class="cls-2" d="M73,117.89c3.34-.19,6.49-1.45,9.84-1.11a6.78,6.78,0,0,1,4,1.52,3.48,3.48,0,0,1,1,1.43c-3.83-.48-7.46.94-11.19.36A4.8,4.8,0,0,1,73,117.89Z"/><path class="cls-2" d="M68.3,27.64c-.27-2.73-1.16-5.25-1.19-7.9a10.37,10.37,0,0,1,.61-3.87,5,5,0,0,1,2.88-3c-.79,3.18,0,6.25-.06,9.33a9.32,9.32,0,0,1-.62,3.58A3.62,3.62,0,0,1,68.3,27.64Z"/><path class="cls-2" d="M11.85,71.83c2.91,1.2,5.93,1,8.76,1.83a12.7,12.7,0,0,1,2.95,1.14,4.23,4.23,0,0,1,2.18,2.72c-3.1-.76-6.28-.33-9.26-1.38C14.41,75.4,12.49,74.48,11.85,71.83Z"/><path class="cls-2" d="M4.11,22.93a20,20,0,0,0,2.1,6,20.76,20.76,0,0,1,2.07,5.36,5,5,0,0,1-.54,3.14c-2.14-3.19-4.84-5.9-5.23-9.86A5.42,5.42,0,0,1,4.11,22.93Z"/><path class="cls-2" d="M80.87,13.45C81.7,11,82.05,8.5,83.15,6.24a8,8,0,0,1,4.52-4.47,3.7,3.7,0,0,1,2.21-.13c-2.23,2.22-3.11,5.08-4.49,7.66a11.28,11.28,0,0,1-2.06,3A3.8,3.8,0,0,1,80.87,13.45Z"/><path class="cls-2" d="M55,108c3-.23,5.56-1.45,8.35-1.85a10.48,10.48,0,0,1,4.1.09A4.45,4.45,0,0,1,70,108c-3.31.26-6.24,1.77-9.46,2a7.33,7.33,0,0,1-4.2-.72A3.73,3.73,0,0,1,55,108Z"/><path class="cls-2" d="M25.93,2.91C24.3,5,23.63,7.28,22.83,9.54a19,19,0,0,1-1.72,4,4.44,4.44,0,0,1-2.83,2.17c.6-2.85.62-5.73,1.83-8.37a8.2,8.2,0,0,1,3-3.67A4.64,4.64,0,0,1,25.93,2.91Z"/><path class="cls-2" d="M129.83,50.52c1.19,3.09,3.12,5.8,3.46,9.15a6.73,6.73,0,0,1-.88,4.52,3.18,3.18,0,0,1-1.14,1.14c-.12-3.21-1.55-6-2.21-8.92a9.54,9.54,0,0,1-.33-3.61A3.94,3.94,0,0,1,129.83,50.52Z"/><path class="cls-2" d="M97.26.58c-2.14,1.43-3.51,3.59-5,5.6a16.74,16.74,0,0,1-3,3.27,4.47,4.47,0,0,1-3,1C88,7.29,89,3.87,91.89,1.64A5.88,5.88,0,0,1,96.73.27.62.62,0,0,1,97.26.58Z"/><path class="cls-2" d="M128.21,26c3,1.56,6.18,2.56,8.46,5.1a5.86,5.86,0,0,1,1.63,5.64c-.06,0-.16,0-.18,0-1.59-2.11-3.81-3.48-5.89-5a16.78,16.78,0,0,1-3.06-2.77A4.07,4.07,0,0,1,128.21,26Z"/><path class="cls-2" d="M10.87,25.46c-.82-3.66-2.2-7.14-1.14-10.91a5.47,5.47,0,0,1,3.33-3.73c-1,3.34-.16,6.67-.3,10A7.05,7.05,0,0,1,12,24.24,3.5,3.5,0,0,1,10.87,25.46Z"/><path class="cls-2" d="M97.56,91.15c-.83,2.37-1,4.78-1.74,7.08A10.48,10.48,0,0,1,93.21,103a4.56,4.56,0,0,1-2.78,1.29c1.45-3,1.67-6.25,3-9.17a7.53,7.53,0,0,1,2.25-3.17A3,3,0,0,1,97.56,91.15Z"/><path class="cls-2" d="M102.9,87c-1,3.19-.78,6.51-2.11,9.51-.73,1.64-1.64,3.12-3.46,3.77l-.45.14a4.17,4.17,0,0,1-.44,0c1.39-3.18,1.37-6.66,2.71-9.78C99.87,89,100.78,87.52,102.9,87Z"/><path class="cls-2" d="M61,48.07a7.33,7.33,0,0,0,6.09.39,5.86,5.86,0,0,0,3.2-3,6.94,6.94,0,0,1,.39-.77,1.32,1.32,0,0,1,1.17-.73c.49.06.3.68.35,1A5.73,5.73,0,0,1,69,51.35a6.1,6.1,0,0,1-7.16-1.64A3.68,3.68,0,0,1,61,48.07Z"/><path class="cls-2" d="M50.49,120.19c-.92,2.83-.61,5.65-.89,8.41a17.47,17.47,0,0,1-.62,3.3,3.81,3.81,0,0,1-2,2.57,22.11,22.11,0,0,1-.3-9.77A5.66,5.66,0,0,1,50.49,120.19Z"/><path class="cls-2" d="M.7,45c1.82,2.32,4.2,3.64,6.36,5.23a16.92,16.92,0,0,1,2.62,2.38A4.31,4.31,0,0,1,10.83,56c-3-1.82-6.5-2.85-8.8-5.68A5.61,5.61,0,0,1,.7,45Z"/><path class="cls-2" d="M130.43,16c-3.17-1.32-6.37-.84-9.47-1.22a10.47,10.47,0,0,1-3.08-.71A3.56,3.56,0,0,1,116,12.3c3.27-.28,6.42-1.33,9.66-.46C127.81,12.42,129.69,13.37,130.43,16Z"/><path class="cls-2" d="M34.92,7.9C36.76,6.06,38.19,4,40.21,2.49A9.6,9.6,0,0,1,44.55.55a5,5,0,0,1,3.79.91c-3,1-5.16,3.13-7.59,4.81A10.64,10.64,0,0,1,37.36,8,3.82,3.82,0,0,1,34.92,7.9Z"/><path class="cls-2" d="M92.06,94.91c-1,2.2-1.29,4.47-2,6.63a12.55,12.55,0,0,1-2.31,4.38,4.87,4.87,0,0,1-3.43,1.79C86,104.54,86.29,101,88,98A5.24,5.24,0,0,1,92.06,94.91Z"/><path class="cls-2" d="M40.84.44C38,2.07,36.25,4.7,34.12,6.87a9.88,9.88,0,0,1-2.79,2.19,3.58,3.58,0,0,1-2.23.37c-.19-.27.07-.42.17-.59.93-1.53,1.82-3.1,2.83-4.58A10,10,0,0,1,36.75.38,5.33,5.33,0,0,1,40.84.44Z"/><path class="cls-2" d="M131.17,38c1.91,2.37,4.26,4.17,5.64,6.81A8.48,8.48,0,0,1,137.88,49a4.14,4.14,0,0,1-1,2.65c-.37-.8-.68-1.57-1.08-2.31-.89-1.67-2.07-3.15-3.11-4.73a17,17,0,0,1-1.67-3.23A4.34,4.34,0,0,1,131.17,38Z"/><path class="cls-2" d="M92.12,8.39c1.38-1.74,2.62-3.41,4-5a9.77,9.77,0,0,1,4.6-3,5.12,5.12,0,0,1,4.09.36c0,.06,0,.16,0,.17A22.73,22.73,0,0,0,99.16,5.1a17.1,17.1,0,0,1-4,3A4.14,4.14,0,0,1,92.12,8.39Z"/><path class="cls-2" d="M55.5,3.93c-3,.34-5.35,1.85-7.85,3a11.94,11.94,0,0,1-4,1.28,3.8,3.8,0,0,1-2.44-.51c.15-.42.58-.55.89-.78a36.88,36.88,0,0,1,5-3.43,9.21,9.21,0,0,1,5.65-1.09A4.65,4.65,0,0,1,55.5,3.93Z"/><path class="cls-2" d="M120.93,16c2.94.39,5.79,0,8.52,1a8.74,8.74,0,0,1,4,2.62,4.23,4.23,0,0,1,.94,2.73c-2.94-1.89-6.31-2.05-9.41-3.11-1.48-.5-3-1-3.76-2.61Z"/><path class="cls-2" d="M118.27,82.42c.55-3.68-.34-7.23.29-10.75a5.45,5.45,0,0,1,2.6-4c0,3.51,1,6.87.28,10.29A5.81,5.81,0,0,1,118.27,82.42Z"/><path class="cls-2" d="M97.88,130.58c-3.07-1.42-6.25-1.25-9.29-1.83-2.54-.49-4-1.35-4.9-3.16,3.45.31,6.89-.48,10.2.81A5.73,5.73,0,0,1,97.88,130.58Z"/><path class="cls-2" d="M110.4,9.78c2.77-.94,5.21-2.25,8-2.48a8.56,8.56,0,0,1,4.76.8,4.37,4.37,0,0,1,2.12,2.23c-3.59-.64-6.92.63-10.35.75a5.67,5.67,0,0,1-4-1A3.37,3.37,0,0,0,110.4,9.78Z"/><path class="cls-2" d="M8,16.38c-.28,3.15.85,5.9,1.42,8.74.32,1.57.72,3.14.13,4.74a2.78,2.78,0,0,1-.86,1.37c-1.46-3.4-3.57-6.52-3.22-10.42A5.44,5.44,0,0,1,8,16.38Z"/><path class="cls-2" d="M137,29.49c-2.47-2.38-5.63-3.23-8.4-4.79-1.48-.84-3-1.7-3.43-3.55a4.2,4.2,0,0,1-.07-.5c3,.93,6,1.18,8.64,2.93,1.89,1.29,3.41,2.85,3.32,5.38A4.78,4.78,0,0,1,137,29.49Z"/><path class="cls-2" d="M127.72,56.48c.79,3.41,2.43,6.48,2.17,10a6.34,6.34,0,0,1-1.29,3.84,3.65,3.65,0,0,1-1.36,1.06c.24-3.78-1.27-7.25-1.18-10.92A5.21,5.21,0,0,1,127.72,56.48Z"/><path class="cls-2" d="M2.06,52.26c2.05,2,4.51,2.89,6.78,4.1a14.82,14.82,0,0,1,3.53,2.46,3.86,3.86,0,0,1,1.27,2.91c-2.86-1.3-6-1.78-8.52-3.65C3.25,56.69,1.82,55.05,2.06,52.26Z"/><path class="cls-2" d="M112.66,78c-.54,3,0,5.85-.66,8.65a9.54,9.54,0,0,1-1.49,3.71,4.88,4.88,0,0,1-2.69,1.84c1-2.93.75-5.89,1.28-8.75a11.65,11.65,0,0,1,1-3.19A4.11,4.11,0,0,1,112.66,78Z"/><path class="cls-2" d="M138.07,44.29c-1.07-2.29-3-3.93-4.64-5.73a19,19,0,0,1-2.67-3.39,4.25,4.25,0,0,1-.51-3.36c2.6,2.13,5.59,3.68,7.35,6.6,1,1.66,1.61,3.44.83,5.4a1.77,1.77,0,0,1-.16.34C138.24,44.2,138.17,44.22,138.07,44.29Z"/><path class="cls-2" d="M131,44.28c1.84,3.13,4.42,5.78,5,9.5a5.49,5.49,0,0,1-1.42,5c-.64-3.76-3-6.66-4-10.15A4.93,4.93,0,0,1,131,44.28Z"/><path class="cls-2" d="M86.34,98.37c-1.25,2.5-1.6,5.1-2.62,7.49a11.69,11.69,0,0,1-2.2,3.58A4.89,4.89,0,0,1,78.24,111c1.68-3.25,2.06-6.88,4-9.88A5.38,5.38,0,0,1,86.34,98.37Z"/><path class="cls-2" d="M48.85,104.51c3.09-.1,5.77-1.36,8.64-1.68a10.07,10.07,0,0,1,3.83.12,4.14,4.14,0,0,1,2.55,1.74c-3.31.34-6.28,1.86-9.56,2-1.87.06-3.66-.14-5-1.61C49.16,104.93,49.08,104.8,48.85,104.51Z"/><path class="cls-2" d="M102.37,96.37c.84-2.6,1-5.34,1.54-8a9.46,9.46,0,0,1,2-4.5,3.6,3.6,0,0,1,2-1.23c-.62,3-.41,6.06-1.27,9a8,8,0,0,1-2,3.65,2.83,2.83,0,0,1-2.23,1.11Z"/><path class="cls-2" d="M65.8,18.58c-.26,2.81.63,5.36,1,8A12.29,12.29,0,0,1,67,31.24a3.53,3.53,0,0,1-1.21,2c-1.25-3.58-3.1-6.91-2.48-10.84A4.93,4.93,0,0,1,65.8,18.58Z"/><path class="cls-2" d="M93.11,124.72c-3.47-.9-7,0-10.44-.6a5.36,5.36,0,0,1-4.2-2.56c3.4,0,6.66-1,10-.35C90.84,121.67,92.51,122.88,93.11,124.72Z"/><path class="cls-2" d="M33.3.93a19.58,19.58,0,0,0-4.21,5.7,20.07,20.07,0,0,1-2.74,3.93A4.35,4.35,0,0,1,23.29,12c1.27-3.06,1.87-6.3,4.12-8.79A6.08,6.08,0,0,1,33.3.93Z"/><path class="cls-2" d="M50.78,129.58c.45-2.75.14-5.47.76-8.12a10.14,10.14,0,0,1,1.56-3.69,4.76,4.76,0,0,1,3.09-2c-1.24,3-1.13,6.2-1.94,9.18a9.59,9.59,0,0,1-1.35,3.17A3.46,3.46,0,0,1,50.78,129.58Z"/><path class="cls-2" d="M30.5,82.23c-3.1-.47-6.07,0-9-.66a8.7,8.7,0,0,1-3.88-1.8,4.25,4.25,0,0,1-1.42-2.26c3.19.94,6.43.62,9.54,1.36C27.72,79.33,29.5,80,30.5,82.23Z"/><path class="cls-2" d="M21,82.82c3.32.83,6.7.16,10,.84a7.19,7.19,0,0,1,3.47,1.54,2.58,2.58,0,0,1,.9,1.4c-3.3-.23-6.57.54-9.81-.23a6.86,6.86,0,0,1-3.74-2A2.75,2.75,0,0,1,21,82.82Z"/><path class="cls-2" d="M117.09,73c-.35,2.9.3,5.68-.07,8.46a10,10,0,0,1-1.34,4.07,4.57,4.57,0,0,1-2.48,1.93c.89-3.44.2-6.88.91-10.21C114.57,75.07,115.38,73.78,117.09,73Z"/><path class="cls-2" d="M40.73,90.77c-3.12-.17-6,.73-9,.41a7.75,7.75,0,0,1-4.61-1.7,4.2,4.2,0,0,1-1.07-1.58c1,.06,1.92.16,2.83.17,2,0,4-.3,6-.15a11.57,11.57,0,0,1,3.3.59A4.36,4.36,0,0,1,40.73,90.77Z"/><path class="cls-2" d="M14.1,20.14c-.06-3-.55-6.05.29-9,.66-2.35,1.89-4.26,4.47-4.91.06.09.13.16.12.18-1.45,3-1.38,6.44-2.11,9.64a6.91,6.91,0,0,1-1.45,3.21A2.38,2.38,0,0,1,14.1,20.14Z"/><path class="cls-2" d="M122.92,77c.3-2.75-.23-5.28-.42-7.83a12,12,0,0,1,.5-4.65,4.1,4.1,0,0,1,1.8-2.32c.41,3.73,1.65,7.27.88,11A5.17,5.17,0,0,1,122.92,77Z"/><path class="cls-2" d="M.53,37.55A22.5,22.5,0,0,0,5.21,43a21.36,21.36,0,0,1,2.68,3,4.78,4.78,0,0,1,1,3.78c-.28.16-.41-.09-.58-.21C6.86,48.48,5.36,47.48,4,46.34,2,44.71.3,42.83,0,40.09A4,4,0,0,1,.53,37.55Z"/><path class="cls-2" d="M98.25,7.58c2.56-2,4.61-4.53,7.69-5.64a7.3,7.3,0,0,1,4.52-.33,3.77,3.77,0,0,1,1.82,1.09c-2.77.56-4.91,2.14-7.2,3.45a14.91,14.91,0,0,1-3.74,1.71A4.31,4.31,0,0,1,98.25,7.58Z"/><path class="cls-2" d="M1.6,30c.95,2.81,2.78,4.86,4.31,7.09C6.9,38.57,8,40,8.05,41.87a3.22,3.22,0,0,1-.31,1.8c-2.37-2.58-5.29-4.61-6.58-8A5.94,5.94,0,0,1,1.6,30Z"/><path class="cls-2" d="M58.8,31.72c.69,3.05,2.58,5.17,4.64,7.19A21.63,21.63,0,0,1,66,41.54c.36.51.81,1.17.49,1.66s-1,0-1.46-.17a10.59,10.59,0,0,1-5.91-3.89,6.73,6.73,0,0,1-1.22-5.73A3.18,3.18,0,0,1,58.8,31.72Z"/><path class="cls-2" d="M61.83,24.68c.11,3,1.37,5.44,2.31,8,.41,1.11.8,2.23,1.13,3.37A3.11,3.11,0,0,1,65,38.54c-3.47-2.16-5.87-7.47-5-11A4.82,4.82,0,0,1,61.83,24.68Z"/><path class="cls-2" d="M55.51,125.23c.72-2.54.75-5,1.41-7.42a9.38,9.38,0,0,1,2.8-4.94c.2-.17.46-.62.78-.2s1,.46.85,1.23c-.52,2-1,4-1.55,6a10.69,10.69,0,0,1-1.55,3.4A4.37,4.37,0,0,1,55.51,125.23Z"/><path class="cls-2" d="M58,40a13.23,13.23,0,0,0,9.66,4.72c.13,0,.26,0,.38,0,.32,0,.7.09.85.37s-.19.56-.37.8a3.88,3.88,0,0,1-2.31,1.45,7.21,7.21,0,0,1-8.37-5.68A3.33,3.33,0,0,1,58,40Z"/><path class="cls-2" d="M88.36,130c3,.66,6.08.48,8.88,1.73a5.62,5.62,0,0,1,1.24.71,1.29,1.29,0,0,1,.47,1.46,1.1,1.1,0,0,1-1.1.79c-3.07,0-6-.49-8.35-2.7A3.81,3.81,0,0,1,88.36,130Z"/><path class="cls-2" d="M45.11,125.22a23.06,23.06,0,0,0,.58,9.63,1.44,1.44,0,0,1-.55,1.71,1.21,1.21,0,0,1-1.47-.4C41.45,134,41.07,127.12,45.11,125.22Z"/><path class="cls-2" d="M79.84,31.1c-2.39-2.11-5.27-2.71-7.9-3.84-.7-.3-1.19-.54-.64-1.4a2.57,2.57,0,0,0,.28-1.11c0-.8.4-.87,1.12-.67a13,13,0,0,1,5.06,2.45A5.32,5.32,0,0,1,79.84,31.1Z"/><path class="cls-2" d="M77,110.4a6.5,6.5,0,0,0-2.29-1.75.41.41,0,0,1-.26-.6,12.41,12.41,0,0,1,3.16-5.2,4,4,0,0,1,2.74-1.09C79,104.54,78.53,107.61,77,110.4Z"/><path class="cls-2" d="M58.41,13.78c3,0,5.91-.7,8.9,0a10.44,10.44,0,0,0-1.17,2.67.49.49,0,0,1-.61.43,16,16,0,0,1-5-1A3.89,3.89,0,0,1,58.41,13.78Z"/><path class="cls-2" d="M60.77,121.2c.81-2.14,1.11-4.3,1.69-6.39.15-.56.34-.7.91-.53a10.86,10.86,0,0,0,1.8.27c.47,0,.77.34.62.76-.71,2.1-1.5,4.18-3.52,5.44A2.83,2.83,0,0,1,60.77,121.2Z"/><path class="cls-2" d="M74.31,105c-.37.88-.7,1.63-1,2.4a1.15,1.15,0,0,1-1.79.38c-.74-.66-.74-1,0-1.66A4.29,4.29,0,0,1,74.31,105Z"/><path class="cls-2" d="M73.53,22.88c.31-.33.6-.62.86-.94.81-1,.87-1,1.6.12a4.55,4.55,0,0,1,.39.76c.14.36.23.73.4,1.29Z"/><path class="cls-2" d="M41.32,134.9a2.58,2.58,0,0,1-1.59-1.54c-.42-.88,0-1.51.79-2.05a13.22,13.22,0,0,0,.8,3.59Z"/><path class="cls-2" d="M95.87,135.88a5.31,5.31,0,0,1-2.08.54,1.27,1.27,0,0,1-1.18-.49c-.15-.22-.36-.51-.16-.77s.4,0,.61.06Z"/><path class="cls-2" d="M68,117.09a2.39,2.39,0,0,1-1.58.45l.43-1.2Z"/><polygon class="cls-2" points="41.32 134.9 41.34 134.92 41.32 134.9 41.32 134.9"/><path class="cls-2" d="M102.36,96.37h0Z"/><path class="cls-2" d="M24.33,63.47a6.76,6.76,0,0,1-3.71-.94A5.58,5.58,0,0,1,18.48,60a8.77,8.77,0,0,1-.66-3.45,14.46,14.46,0,0,1,1.39-5.94A16,16,0,0,1,22,46.5a13.91,13.91,0,0,1,3.86-3,9.77,9.77,0,0,1,4.58-1.14,7.2,7.2,0,0,1,3,.51,3.77,3.77,0,0,1,1.72,1.4,3.4,3.4,0,0,1,.55,1.83,4.28,4.28,0,0,1-.78,2.43A3.56,3.56,0,0,1,33.05,50l0,0-.11,0-.08,0h-.05a.66.66,0,0,1-.25,0v-.85l0,0,0,0v-.13h0l0,0,.07.1,0-.11c.12,0,.37-.23.7-.85a3.37,3.37,0,0,0,.41-1.63,2.38,2.38,0,0,0-.7-1.66,3.7,3.7,0,0,0-2.7-.73,7.27,7.27,0,0,0-3.64,1,12.27,12.27,0,0,0-3.25,2.72,16,16,0,0,0-2.36,3.68,12.44,12.44,0,0,0-1.12,5A5.9,5.9,0,0,0,21,60.12a3.84,3.84,0,0,0,3.33,1.38,6.34,6.34,0,0,0,2.86-.77,19,19,0,0,0,3.16-2.1,40,40,0,0,0,3.16-2.88c.7-.7,1.37-1.39,2-2.06l-1.12.16c-.78.13-1.53.28-2.25.46h-.26a.86.86,0,0,1-.92-.91,1.07,1.07,0,0,1,.24-.66,1,1,0,0,1,.71-.42c1.62-.27,3.41-.5,5.31-.68,3.68-4.36,6.68-7.84,8.92-10.34s4.14-4.18,5.56-4.79a4.27,4.27,0,0,1,1.71-.39c1.17,0,1.26.76,1.26,1,0,.48-.33,1-1.07,1.77a18.09,18.09,0,0,0-2.47,3.32,40.72,40.72,0,0,0-2.38,4.62,35.64,35.64,0,0,0-1.64,4.41h.33a2.77,2.77,0,0,1,.42,0,1.33,1.33,0,0,1,.8.34,1,1,0,0,1,.32.7.91.91,0,0,1-1,.92l-.8,0h-.5A16.89,16.89,0,0,0,46.19,57c0,.31,0,.61,0,.89s.06.56.1.82a7.92,7.92,0,0,0,.4,1.34c0,.08.14.31.25.31s.28,0,.92-.81a1.23,1.23,0,0,1,.91-.5.82.82,0,0,1,.69.38.88.88,0,0,1,0,.93A2.76,2.76,0,0,1,47,62.19a2.36,2.36,0,0,1-1.67-.76,4.19,4.19,0,0,1-1.06-2.26,11.58,11.58,0,0,1-.22-2.27,16.59,16.59,0,0,1,.13-2.08c.06-.52.14-1.07.25-1.63H41.85c-1.12,0-2.23.07-3.33.17l-.07.06-.13.12c-.91,1-2,2.13-3.08,3.27A44.53,44.53,0,0,1,31.7,60,20.36,20.36,0,0,1,28,62.5,8.12,8.12,0,0,1,24.33,63.47Zm25.9-23.73a35,35,0,0,0-2.45,2.62c-2,2.29-4.5,5.32-7.59,9l2.17-.1,2.53-.07a32.28,32.28,0,0,1,1.62-4.7,44.44,44.44,0,0,1,2.34-4.63C49.32,41.1,49.79,40.38,50.23,39.74Z"/><path class="cls-2" d="M64.59,77.63a3,3,0,0,1-1.85-.6,4.12,4.12,0,0,1-1.23-1.54,4.42,4.42,0,0,1-.44-1.93,6.15,6.15,0,0,1,.65-2.79,11.39,11.39,0,0,1,1.65-2.48,22.07,22.07,0,0,1,2-2.07V66a7.88,7.88,0,0,1,.16-1.47,12,12,0,0,1,.5-1.78A9.79,9.79,0,0,1,66.85,61,5,5,0,0,1,68,59.68a2.28,2.28,0,0,1,1.43-.5,1.57,1.57,0,0,1,1.17.45A1.62,1.62,0,0,1,71,60.81a2.78,2.78,0,0,1-.54,1.56,9.52,9.52,0,0,1-1.35,1.56c-.55.51-1.09,1-1.63,1.44s-1,.85-1.34,1.2c.07.41.14.82.19,1.24a11.22,11.22,0,0,0,.25,1.26,6.65,6.65,0,0,1,2.28-2.18,3,3,0,0,1,1.43-.41,2,2,0,0,1,1.26.41,2.55,2.55,0,0,1,.76,1,3.63,3.63,0,0,1,.25,1.31,5.14,5.14,0,0,1-.25,1.46,10.92,10.92,0,0,1-.66,1.61c-.28.53-.56,1-.87,1.51a10.44,10.44,0,0,1-.88,1.2c.07.08.2.19.38.36l.59.52c.2.19.38.37.52.53a.68.68,0,0,1,.22.35.26.26,0,0,1,0,.11.11.11,0,0,1-.12.07.94.94,0,0,1-.32-.21l-.58-.51L70,75.68c-.18-.16-.3-.27-.36-.31A7.75,7.75,0,0,1,67.33,77,6.39,6.39,0,0,1,64.59,77.63Zm0-.66a5.62,5.62,0,0,0,2.47-.55,7,7,0,0,0,2.06-1.5,11.67,11.67,0,0,1-1.71-2,9.8,9.8,0,0,1-1.15-2.34,3.8,3.8,0,0,0-.29.91,6.27,6.27,0,0,0-.07.92,1.89,1.89,0,0,1,0,.29.22.22,0,0,1-.21.19.24.24,0,0,1-.16-.2,1.78,1.78,0,0,1,0-.3,5.07,5.07,0,0,1,.15-1.24A5.24,5.24,0,0,1,66.06,70c-.13-.45-.25-.91-.35-1.37a11.4,11.4,0,0,1-.24-1.38,20.72,20.72,0,0,0-1.59,1.85,12.19,12.19,0,0,0-1.37,2.22A5.25,5.25,0,0,0,62,73.67a4.15,4.15,0,0,0,.3,1.52,3.19,3.19,0,0,0,.91,1.27A2.11,2.11,0,0,0,64.59,77Zm1.58-11.46c.28-.25.65-.55,1.12-.92s.94-.76,1.42-1.19a8.53,8.53,0,0,0,1.21-1.3,2.06,2.06,0,0,0,.49-1.21,1,1,0,0,0-1-1,1.39,1.39,0,0,0-1,.44,4.76,4.76,0,0,0-.88,1.13A10,10,0,0,0,66.88,63c-.19.52-.36,1-.48,1.46A7.09,7.09,0,0,0,66.17,65.51Zm3.28,9a11.38,11.38,0,0,0,1-1.46,11.52,11.52,0,0,0,.88-1.8,5.06,5.06,0,0,0,.35-1.71,3.14,3.14,0,0,0-.19-1.07,2.13,2.13,0,0,0-.57-.89,1.43,1.43,0,0,0-1-.35,2.24,2.24,0,0,0-1.2.41,6.56,6.56,0,0,0-1.16,1,7.61,7.61,0,0,0-.85,1,12.09,12.09,0,0,0,1,2.63A10,10,0,0,0,69.45,74.55Z"/><path class="cls-2" d="M90.57,62.94a6.27,6.27,0,0,1-4.64-1.66,5.68,5.68,0,0,1-1.62-4.16,5.32,5.32,0,0,1,.75-2.66A8.46,8.46,0,0,1,87,52.16a7.06,7.06,0,0,1,2.65-1.39l.06,0h.05l.19,0a1,1,0,0,1,1,1,1,1,0,0,1-.72.94,3.86,3.86,0,0,1-.54.19,2,2,0,0,0-.37.16,6.29,6.29,0,0,0-1.9,1.6,4.46,4.46,0,0,0-1,2,.81.81,0,0,0,0,.2v.33a3.56,3.56,0,0,0,1.07,2.69,4.27,4.27,0,0,0,3.09,1,8.89,8.89,0,0,0,3.61-.73,12.74,12.74,0,0,0,3.14-2,18.88,18.88,0,0,0,2.61-2.68,27.78,27.78,0,0,0,2-2.81c.06-.1.12-.19.17-.29l-1.26.07c-.73,0-1.46,0-2.18,0a7.85,7.85,0,0,1-1.11-.09,3.07,3.07,0,0,1-1.21-.44,1.35,1.35,0,0,1-.66-1.21,2,2,0,0,1,.64-1.32,1.94,1.94,0,0,1,1.41-.74,1,1,0,0,1,1,1,.92.92,0,0,1-.38.76l.33,0c.79,0,1.59,0,2.36-.08l2.06-.17c.68-1.57,1.29-3.19,1.82-4.82s1-3.17,1.37-4.75c-1.68-.48-3.48-.94-5.36-1.38a26.18,26.18,0,0,0-5.87-.71c-.65,0-1.32,0-2,.1a9,9,0,0,0-1.58.39,7.86,7.86,0,0,0-1.66.77,4.6,4.6,0,0,0-1.24,1,1.77,1.77,0,0,0-.42,1.14,1.64,1.64,0,0,0,.65,1.29,2.38,2.38,0,0,0,1.58.59,1,1,0,1,1,0,2,4.84,4.84,0,0,1-2.12-.48,4.13,4.13,0,0,1-1.62-1.35,3.28,3.28,0,0,1-.63-1.94,3.58,3.58,0,0,1,.7-2.13,6.82,6.82,0,0,1,1.69-1.6,10.48,10.48,0,0,1,2.18-1.13,8.81,8.81,0,0,1,2.23-.54,16.09,16.09,0,0,1,2-.11,29.2,29.2,0,0,1,6.33.74c2,.44,3.84.92,5.58,1.44l0-.09a5.38,5.38,0,0,1,.21-.61,1.07,1.07,0,0,1,1-.69,1.18,1.18,0,0,1,.7.21.89.89,0,0,1,.39.74,3.16,3.16,0,0,1-.14.88c0,.08,0,.16-.08.24l2.16.72c1,.34,2.11.69,3.25,1s2.2.63,3.23.87a10.91,10.91,0,0,0,2.51.35,3.79,3.79,0,0,0,1.26-.19,1.27,1.27,0,0,0,.71-.64,1.73,1.73,0,0,1,.3-.4A.91.91,0,0,1,123,41a1.26,1.26,0,0,1,.73.22.91.91,0,0,1,.43.76v.09l0,.16v.1h0a3.05,3.05,0,0,1-1.49,1.6,4.6,4.6,0,0,1-2.18.54,12.8,12.8,0,0,1-2.81-.39c-1.08-.25-2.25-.57-3.47-.94s-2.36-.74-3.46-1.11c-.88-.29-1.61-.53-2.23-.71-.41,1.54-.84,3.06-1.27,4.54a38.82,38.82,0,0,1-1.54,4.22c.46,0,.92-.07,1.37-.12.76-.07,1.51-.1,2.22-.1a1,1,0,0,1,1.09,1,1,1,0,0,1-1.09,1c-.69,0-1.49,0-2.38.14s-1.54.14-2.2.19a29.68,29.68,0,0,1-2.14,3.43,22.82,22.82,0,0,1-3.14,3.55,15.82,15.82,0,0,1-4,2.69A11.32,11.32,0,0,1,90.57,62.94Z"/></svg>
