<svg id="Calque_1" data-name="Calque 1" xmlns="http://www.w3.org/2000/svg" viewBox="0 0 205 205"><defs><style>.cls-1{fill:#8d4b97;}.cls-2{font-size:11.02px;font-family:MsMadi-Regular, Ms Madi;}.cls-2,.cls-3{fill:#fff;}</style></defs><circle class="cls-1" cx="102.5" cy="102.5" r="102.31"/><text class="cls-2" transform="translate(74.1 134.48)">19 août 2023</text><path class="cls-3" d="M107.1,83.27c1.4,2.16,2.79,4.18,3.05,6.75a6.19,6.19,0,0,1-5.41,6.87,4.62,4.62,0,0,1-1.56-.15,8.06,8.06,0,0,0,2-1.5c1.65-1.79,1.8-4,1.54-6.23-.11-1-.28-1.9-.4-2.85A3.45,3.45,0,0,1,107.1,83.27Z"/><path class="cls-3" d="M114.26,83.43a11.86,11.86,0,0,0-4.66-5,27.19,27.19,0,0,1-3.84-2.72,4.44,4.44,0,0,1-1.69-3.42c2.06,1,4.18,1.52,6.1,2.55a9.05,9.05,0,0,1,3.71,3.39A5.64,5.64,0,0,1,114.26,83.43Z"/><path class="cls-3" d="M109.61,52.07c-1.43,3.34-1,6.76-1.68,10a7.28,7.28,0,0,1-1.39,3.33,3.63,3.63,0,0,1-1.41,1c.1-3.16-.67-6.21.11-9.26C105.83,54.87,106.86,52.93,109.61,52.07Z"/><path class="cls-3" d="M106.49,77.93c2.79,1.83,5.64,3.42,6.75,6.78a6.37,6.37,0,0,1-.42,5.47,4,4,0,0,1-1.26,1.35c.31-3.69-1.68-6.33-3.52-9-.83-1.22-1.8-2.38-1.64-4C106.42,78.35,106.45,78.21,106.49,77.93Z"/><path class="cls-3" d="M115.35,159.54c-3-.16-5.62.84-8.38,1.09a10.48,10.48,0,0,1-4.28-.27,4.18,4.18,0,0,1-2.29-1.7c3.72-.41,7.13-2.09,10.89-1.6A5.07,5.07,0,0,1,115.35,159.54Z"/><path class="cls-3" d="M152.5,50c-2.95,0-5.38,1.18-7.89,2a16.44,16.44,0,0,1-3.72.91,4.2,4.2,0,0,1-3.16-.86c3.09-1.62,5.79-3.86,9.37-4.15A5.74,5.74,0,0,1,152.5,50Z"/><path class="cls-3" d="M91.15,145.59c-3.16.27-6,1.61-9.11,1.73a7.8,7.8,0,0,1-4.38-.85A3.16,3.16,0,0,1,76.22,145c3.23,0,6.19-1.29,9.33-1.44a7.73,7.73,0,0,1,4.21.72A3.44,3.44,0,0,1,91.15,145.59Z"/><path class="cls-3" d="M85.28,142.23c-2.55.15-4.85,1-7.22,1.26a11.3,11.3,0,0,1-5-.3A4.57,4.57,0,0,1,70.31,141c3.47.22,6.65-1.06,10-1a6.89,6.89,0,0,1,3.76,1A4.05,4.05,0,0,1,85.28,142.23Z"/><path class="cls-3" d="M101.09,56.58c-3.45-.78-6.75.13-10.07,0-1.73,0-3.4-.23-4.71-1.84,2.33-.48,4.47-1.26,6.75-1.55a10.3,10.3,0,0,1,4.84.44A5,5,0,0,1,101.09,56.58Z"/><path class="cls-3" d="M109.33,61.6c.47-2.85.29-5.71,1.28-8.39.87-2.35,2.15-4.32,4.84-4.87a4.93,4.93,0,0,1,.64-.06C114.2,51,114,54.19,113,57.11a9.71,9.71,0,0,1-1.44,3A3.68,3.68,0,0,1,109.33,61.6Z"/><path class="cls-3" d="M79.52,138.66c-3.44.12-6.65,1.31-10,.9A6,6,0,0,1,65,137.21c-.08-.12-.14-.27-.29-.57,3.61.37,7-.74,10.51-.37A5.29,5.29,0,0,1,79.52,138.66Z"/><path class="cls-3" d="M94.37,155.39c3-.28,5.63-1.54,8.47-1.87a9.42,9.42,0,0,1,4.09.25,4.38,4.38,0,0,1,2.42,1.76,8.16,8.16,0,0,1-1.86.29c-2,.46-4.06.94-6.1,1.33a9.43,9.43,0,0,1-4.57-.06A4.27,4.27,0,0,1,94.37,155.39Z"/><path class="cls-3" d="M54.67,116.63c-2.47-.74-4.9-.75-7.22-1.34a12.47,12.47,0,0,1-4.13-1.75,5.13,5.13,0,0,1-2.2-3.56c3,1.57,6.29,1.54,9.26,2.68a8,8,0,0,1,3.45,2.18A3.88,3.88,0,0,1,54.67,116.63Z"/><path class="cls-3" d="M50.59,111.32c-2.73-.94-5.52-1.1-8.08-2.17a9.6,9.6,0,0,1-3.58-2.52,4.28,4.28,0,0,1-1.1-3.13,21.72,21.72,0,0,0,3.62,1.79c1.6.54,3.2,1.12,4.79,1.71a8.84,8.84,0,0,1,2.95,1.76A4.14,4.14,0,0,1,50.59,111.32Z"/><path class="cls-3" d="M95.36,51.77c-3.16-.17-5.89,1-8.72,1.59a10.27,10.27,0,0,1-4.09.34,3.67,3.67,0,0,1-2-1c3.54-1.53,6.76-3.8,10.86-3.27A5.32,5.32,0,0,1,95.36,51.77Z"/><path class="cls-3" d="M106.25,162c3.34-.19,6.49-1.46,9.84-1.11a6.86,6.86,0,0,1,4,1.51,3.67,3.67,0,0,1,1,1.44c-3.82-.48-7.46.94-11.18.35A4.79,4.79,0,0,1,106.25,162Z"/><path class="cls-3" d="M101.59,71.78c-.27-2.74-1.15-5.25-1.18-7.9A10,10,0,0,1,101,60a5,5,0,0,1,2.87-3c-.79,3.19,0,6.26,0,9.34a9.66,9.66,0,0,1-.62,3.57A3.66,3.66,0,0,1,101.59,71.78Z"/><path class="cls-3" d="M45.14,116c2.91,1.19,5.93,1,8.77,1.83a13,13,0,0,1,3,1.13A4.27,4.27,0,0,1,59,121.66c-3.1-.76-6.28-.33-9.25-1.39C47.71,119.54,45.78,118.61,45.14,116Z"/><path class="cls-3" d="M37.4,67.07a20.12,20.12,0,0,0,2.1,6,20.32,20.32,0,0,1,2.07,5.36A5.06,5.06,0,0,1,41,81.61c-2.14-3.19-4.85-5.91-5.23-9.86A5.38,5.38,0,0,1,37.4,67.07Z"/><path class="cls-3" d="M114.16,57.59c.84-2.46,1.18-5,2.28-7.21A8.06,8.06,0,0,1,121,45.9a3.72,3.72,0,0,1,2.21-.12c-2.23,2.21-3.11,5.08-4.49,7.66a11.21,11.21,0,0,1-2.06,3A3.8,3.8,0,0,1,114.16,57.59Z"/><path class="cls-3" d="M88.26,152.1c3-.22,5.56-1.45,8.35-1.84a10.16,10.16,0,0,1,4.11.09,4.46,4.46,0,0,1,2.59,1.77c-3.31.26-6.24,1.76-9.46,2a7.41,7.41,0,0,1-4.2-.71A3.68,3.68,0,0,1,88.26,152.1Z"/><path class="cls-3" d="M59.22,47.05c-1.63,2.05-2.3,4.36-3.09,6.62a19.65,19.65,0,0,1-1.73,4,4.42,4.42,0,0,1-2.83,2.17c.6-2.85.62-5.73,1.84-8.37a8,8,0,0,1,3-3.67A4.54,4.54,0,0,1,59.22,47.05Z"/><path class="cls-3" d="M163.12,94.65c1.2,3.1,3.13,5.81,3.47,9.15a6.78,6.78,0,0,1-.88,4.52,3.18,3.18,0,0,1-1.14,1.14c-.12-3.2-1.55-6-2.22-8.91a9.78,9.78,0,0,1-.33-3.61A4,4,0,0,1,163.12,94.65Z"/><path class="cls-3" d="M130.55,44.72c-2.14,1.43-3.5,3.58-5,5.59a16.44,16.44,0,0,1-3,3.27,4.52,4.52,0,0,1-3,1c1.7-3.14,2.71-6.56,5.63-8.78A5.82,5.82,0,0,1,130,44.41.58.58,0,0,1,130.55,44.72Z"/><path class="cls-3" d="M161.5,70.11c3,1.57,6.18,2.57,8.46,5.11a5.85,5.85,0,0,1,1.63,5.63c-.06,0-.16,0-.17,0-1.59-2.12-3.82-3.49-5.9-5a17.06,17.06,0,0,1-3.06-2.76A4.08,4.08,0,0,1,161.5,70.11Z"/><path class="cls-3" d="M44.16,69.59c-.82-3.65-2.2-7.13-1.14-10.9A5.5,5.5,0,0,1,46.35,55c-1,3.35-.16,6.68-.3,10a7.19,7.19,0,0,1-.77,3.44A3.61,3.61,0,0,1,44.16,69.59Z"/><path class="cls-3" d="M130.86,135.28c-.84,2.38-1.05,4.79-1.74,7.08a10.48,10.48,0,0,1-2.62,4.74,4.56,4.56,0,0,1-2.78,1.29c1.45-3,1.68-6.25,3-9.18a7.5,7.5,0,0,1,2.26-3.16A3,3,0,0,1,130.86,135.28Z"/><path class="cls-3" d="M136.19,131.16c-1,3.18-.77,6.5-2.11,9.5-.73,1.65-1.64,3.13-3.45,3.78l-.46.14a3.88,3.88,0,0,1-.44,0c1.4-3.18,1.37-6.66,2.71-9.78C133.16,133.16,134.08,131.66,136.19,131.16Z"/><path class="cls-3" d="M94.32,92.21a7.33,7.33,0,0,0,6.09.38,5.78,5.78,0,0,0,3.2-3,6.17,6.17,0,0,1,.39-.77,1.34,1.34,0,0,1,1.17-.74c.49.07.3.69.35,1.06a5.74,5.74,0,0,1-3.22,6.37,6.13,6.13,0,0,1-7.16-1.64A3.84,3.84,0,0,1,94.32,92.21Z"/><path class="cls-3" d="M83.78,164.33c-.92,2.82-.6,5.64-.89,8.41a17.45,17.45,0,0,1-.61,3.3,3.88,3.88,0,0,1-2,2.57,22,22,0,0,1-.29-9.77A5.65,5.65,0,0,1,83.78,164.33Z"/><path class="cls-3" d="M34,89.12c1.81,2.32,4.19,3.63,6.35,5.22A16.53,16.53,0,0,1,43,96.73a4.32,4.32,0,0,1,1.16,3.39c-3-1.82-6.5-2.85-8.8-5.69A5.56,5.56,0,0,1,34,89.12Z"/><path class="cls-3" d="M163.72,60.09c-3.17-1.32-6.37-.84-9.47-1.22a10.4,10.4,0,0,1-3.07-.71,3.58,3.58,0,0,1-1.87-1.72c3.27-.28,6.42-1.34,9.66-.46C161.11,56.56,163,57.5,163.72,60.09Z"/><path class="cls-3" d="M68.21,52c1.84-1.83,3.27-3.9,5.3-5.41a9.54,9.54,0,0,1,4.34-1.93,5.06,5.06,0,0,1,3.79.9c-3,1-5.17,3.13-7.6,4.82a10.64,10.64,0,0,1-3.39,1.76A3.83,3.83,0,0,1,68.21,52Z"/><path class="cls-3" d="M125.35,139c-1,2.2-1.29,4.47-2,6.63a12.35,12.35,0,0,1-2.31,4.39,4.83,4.83,0,0,1-3.42,1.79c1.64-3.17,2-6.71,3.67-9.75A5.24,5.24,0,0,1,125.35,139Z"/><path class="cls-3" d="M74.14,44.58c-2.9,1.63-4.59,4.25-6.73,6.43a9.63,9.63,0,0,1-2.78,2.18,3.54,3.54,0,0,1-2.23.38c-.19-.28.06-.43.16-.59.93-1.54,1.82-3.1,2.83-4.58A10,10,0,0,1,70,44.52,5.26,5.26,0,0,1,74.14,44.58Z"/><path class="cls-3" d="M164.47,82.09c1.9,2.38,4.25,4.18,5.63,6.82a8.45,8.45,0,0,1,1.07,4.23,4.12,4.12,0,0,1-1,2.65c-.37-.8-.68-1.58-1.07-2.31-.9-1.67-2.08-3.15-3.12-4.73a16.52,16.52,0,0,1-1.66-3.24A4.3,4.3,0,0,1,164.47,82.09Z"/><path class="cls-3" d="M125.41,52.52c1.38-1.73,2.62-3.41,4-5a9.69,9.69,0,0,1,4.59-3,5.12,5.12,0,0,1,4.09.35c0,.07,0,.16,0,.18a23.07,23.07,0,0,0-5.59,4.18,16.94,16.94,0,0,1-4,3A4.09,4.09,0,0,1,125.41,52.52Z"/><path class="cls-3" d="M88.79,48.06c-3,.34-5.35,1.86-7.85,3a12.19,12.19,0,0,1-4,1.28,4,4,0,0,1-2.45-.51c.16-.43.58-.56.89-.78a37.6,37.6,0,0,1,5-3.44A9.22,9.22,0,0,1,86,46.52,4.56,4.56,0,0,1,88.79,48.06Z"/><path class="cls-3" d="M154.23,60.16c2.93.39,5.79,0,8.51,1a8.74,8.74,0,0,1,4,2.62,4.25,4.25,0,0,1,1,2.73c-2.94-1.9-6.32-2.06-9.42-3.11-1.48-.5-3-1-3.75-2.62C154.41,60.63,154.36,60.49,154.23,60.16Z"/><path class="cls-3" d="M151.56,126.55c.55-3.68-.34-7.22.29-10.75a5.48,5.48,0,0,1,2.6-4c0,3.52,1,6.88.28,10.29A5.78,5.78,0,0,1,151.56,126.55Z"/><path class="cls-3" d="M131.17,174.72c-3.07-1.43-6.25-1.25-9.29-1.84-2.54-.48-4-1.35-4.9-3.16,3.45.32,6.9-.47,10.21.81A5.74,5.74,0,0,1,131.17,174.72Z"/><path class="cls-3" d="M143.69,53.92c2.77-.94,5.21-2.25,8-2.49a8.6,8.6,0,0,1,4.77.81,4.28,4.28,0,0,1,2.11,2.23c-3.59-.65-6.92.63-10.35.74a5.57,5.57,0,0,1-4-1A4.14,4.14,0,0,0,143.69,53.92Z"/><path class="cls-3" d="M41.31,60.51c-.29,3.16.84,5.9,1.42,8.74.31,1.57.71,3.14.13,4.74A2.91,2.91,0,0,1,42,75.37C40.54,72,38.42,68.85,38.77,65A5.47,5.47,0,0,1,41.31,60.51Z"/><path class="cls-3" d="M170.29,73.62c-2.47-2.38-5.64-3.22-8.41-4.79-1.48-.83-3-1.69-3.43-3.55,0-.11,0-.24-.07-.5,3,.93,6.06,1.19,8.64,2.94,1.89,1.29,3.42,2.84,3.33,5.37C170.34,73.21,170.32,73.32,170.29,73.62Z"/><path class="cls-3" d="M161,100.62c.78,3.41,2.42,6.48,2.16,10a6.37,6.37,0,0,1-1.29,3.84,3.53,3.53,0,0,1-1.36,1c.25-3.78-1.27-7.25-1.17-10.91A5.17,5.17,0,0,1,161,100.62Z"/><path class="cls-3" d="M35.35,96.4c2,2,4.51,2.88,6.78,4.1A14.67,14.67,0,0,1,45.66,103a3.81,3.81,0,0,1,1.27,2.92c-2.85-1.3-6-1.79-8.52-3.66C36.54,100.83,35.11,99.18,35.35,96.4Z"/><path class="cls-3" d="M146,122.09c-.53,3,0,5.86-.65,8.66a9.93,9.93,0,0,1-1.49,3.71,4.91,4.91,0,0,1-2.69,1.84c1-2.94.74-5.89,1.27-8.75a11.88,11.88,0,0,1,1-3.19A4.12,4.12,0,0,1,146,122.09Z"/><path class="cls-3" d="M171.36,88.43c-1.07-2.3-3-3.94-4.64-5.73a19.52,19.52,0,0,1-2.67-3.4,4.31,4.31,0,0,1-.51-3.35c2.6,2.13,5.6,3.68,7.35,6.6,1,1.66,1.61,3.44.84,5.4a2.7,2.7,0,0,1-.17.34S171.46,88.36,171.36,88.43Z"/><path class="cls-3" d="M164.29,88.42c1.85,3.12,4.43,5.77,5,9.5a5.53,5.53,0,0,1-1.43,5c-.64-3.76-3-6.66-4-10.15A5,5,0,0,1,164.29,88.42Z"/><path class="cls-3" d="M119.63,142.51c-1.24,2.49-1.6,5.1-2.62,7.48a11.73,11.73,0,0,1-2.2,3.59,4.91,4.91,0,0,1-3.28,1.58c1.68-3.25,2.06-6.88,4-9.89A5.37,5.37,0,0,1,119.63,142.51Z"/><path class="cls-3" d="M82.14,148.65c3.1-.11,5.78-1.36,8.65-1.69a10.23,10.23,0,0,1,3.82.13,4.19,4.19,0,0,1,2.56,1.74c-3.31.34-6.29,1.86-9.56,2-1.88.06-3.67-.14-5-1.62C82.46,149.07,82.37,148.94,82.14,148.65Z"/><path class="cls-3" d="M135.66,140.51c.85-2.6,1-5.34,1.54-8a9.54,9.54,0,0,1,2-4.51,3.71,3.71,0,0,1,2-1.23c-.62,3-.4,6.07-1.27,9a7.91,7.91,0,0,1-2,3.65,2.83,2.83,0,0,1-2.22,1.1Z"/><path class="cls-3" d="M99.09,62.71c-.26,2.82.63,5.37,1,8a12.28,12.28,0,0,1,.12,4.68,3.58,3.58,0,0,1-1.22,2c-1.25-3.58-3.1-6.91-2.47-10.85A4.91,4.91,0,0,1,99.09,62.71Z"/><path class="cls-3" d="M126.4,168.86c-3.47-.91-7,0-10.44-.61a5.36,5.36,0,0,1-4.2-2.55c3.41,0,6.66-1,10-.35C124.13,165.81,125.81,167,126.4,168.86Z"/><path class="cls-3" d="M66.6,45.07a19.4,19.4,0,0,0-4.22,5.69,19.84,19.84,0,0,1-2.74,3.94,4.35,4.35,0,0,1-3.06,1.47c1.28-3.07,1.88-6.31,4.12-8.79C62.22,45.71,64,44.62,66.6,45.07Z"/><path class="cls-3" d="M84.07,173.72c.45-2.76.14-5.48.76-8.12a10.06,10.06,0,0,1,1.56-3.69,4.77,4.77,0,0,1,3.1-2c-1.24,3-1.13,6.19-1.95,9.18a9.53,9.53,0,0,1-1.35,3.16A3.38,3.38,0,0,1,84.07,173.72Z"/><path class="cls-3" d="M63.79,126.37c-3.1-.47-6.06,0-9-.67A8.5,8.5,0,0,1,51,123.91a4.16,4.16,0,0,1-1.42-2.27c3.18,1,6.43.63,9.54,1.36C61,123.46,62.79,124.17,63.79,126.37Z"/><path class="cls-3" d="M54.33,127c3.31.83,6.69.15,10,.83a7.19,7.19,0,0,1,3.47,1.54,2.67,2.67,0,0,1,.91,1.4c-3.31-.22-6.57.54-9.82-.22a6.86,6.86,0,0,1-3.74-2A2.84,2.84,0,0,1,54.33,127Z"/><path class="cls-3" d="M150.38,117.13c-.34,2.9.3,5.67-.07,8.46a9.9,9.9,0,0,1-1.34,4.06,4.45,4.45,0,0,1-2.48,1.93c.9-3.44.2-6.87.91-10.21C147.86,119.2,148.67,117.92,150.38,117.13Z"/><path class="cls-3" d="M74,134.91c-3.12-.18-6,.73-9,.41a7.71,7.71,0,0,1-4.6-1.71A4,4,0,0,1,59.35,132c1,.07,1.92.16,2.83.18,2,0,4-.31,6-.15a11.56,11.56,0,0,1,3.3.58A4.35,4.35,0,0,1,74,134.91Z"/><path class="cls-3" d="M47.39,64.27c0-3-.54-6,.29-9,.67-2.36,1.9-4.27,4.47-4.92.06.1.13.16.12.19-1.44,3.05-1.38,6.43-2.1,9.64a7,7,0,0,1-1.46,3.2A2.28,2.28,0,0,1,47.39,64.27Z"/><path class="cls-3" d="M156.22,121.17c.29-2.76-.23-5.29-.43-7.84a12,12,0,0,1,.5-4.65,4.11,4.11,0,0,1,1.8-2.31c.41,3.72,1.66,7.27.88,11A5.18,5.18,0,0,1,156.22,121.17Z"/><path class="cls-3" d="M33.82,81.69a22.69,22.69,0,0,0,4.68,5.4,22.6,22.6,0,0,1,2.69,3,4.88,4.88,0,0,1,1,3.79c-.28.15-.42-.09-.59-.21-1.45-1.06-3-2.06-4.33-3.2-2-1.63-3.68-3.51-4-6.25A4.09,4.09,0,0,1,33.82,81.69Z"/><path class="cls-3" d="M131.54,51.72c2.57-2,4.61-4.53,7.7-5.64a7.2,7.2,0,0,1,4.51-.33,3.72,3.72,0,0,1,1.83,1.09c-2.77.55-4.92,2.14-7.21,3.44A14.56,14.56,0,0,1,134.63,52,4.3,4.3,0,0,1,131.54,51.72Z"/><path class="cls-3" d="M34.9,74.16c1,2.82,2.77,4.86,4.3,7.1,1,1.44,2.06,2.88,2.14,4.74A3.17,3.17,0,0,1,41,87.81c-2.37-2.58-5.29-4.61-6.57-8A5.93,5.93,0,0,1,34.9,74.16Z"/><path class="cls-3" d="M92.1,75.86c.68,3,2.58,5.17,4.63,7.18a20.29,20.29,0,0,1,2.52,2.64c.36.5.81,1.17.5,1.66s-1,0-1.47-.18a10.57,10.57,0,0,1-5.91-3.89,6.74,6.74,0,0,1-1.22-5.72A3.27,3.27,0,0,1,92.1,75.86Z"/><path class="cls-3" d="M95.12,68.81c.11,3,1.37,5.44,2.31,8,.41,1.11.8,2.23,1.13,3.37a3.05,3.05,0,0,1-.24,2.5c-3.46-2.15-5.87-7.46-5-11A4.85,4.85,0,0,1,95.12,68.81Z"/><path class="cls-3" d="M88.81,169.36c.71-2.53.74-5,1.41-7.41A9.33,9.33,0,0,1,93,157c.2-.17.46-.61.78-.19s1.06.46.86,1.22c-.53,2-1,4-1.56,6.05a10.48,10.48,0,0,1-1.55,3.4A4.34,4.34,0,0,1,88.81,169.36Z"/><path class="cls-3" d="M91.25,84.17c2.55,3.13,5.88,4.39,9.65,4.72l.39,0c.32,0,.69.09.85.38s-.2.56-.38.8a3.93,3.93,0,0,1-2.31,1.45,7.21,7.21,0,0,1-8.37-5.69A3.24,3.24,0,0,1,91.25,84.17Z"/><path class="cls-3" d="M121.65,174.14c3,.66,6.08.49,8.88,1.73a5.93,5.93,0,0,1,1.25.71,1.32,1.32,0,0,1,.46,1.47,1.1,1.1,0,0,1-1.1.79c-3.07,0-6-.5-8.35-2.7A3.91,3.91,0,0,1,121.65,174.14Z"/><path class="cls-3" d="M78.4,169.35A23,23,0,0,0,79,179a1.42,1.42,0,0,1-.55,1.71A1.2,1.2,0,0,1,77,180.3C74.74,178.16,74.36,171.25,78.4,169.35Z"/><path class="cls-3" d="M113.13,75.24c-2.39-2.11-5.27-2.71-7.89-3.84-.71-.31-1.19-.54-.65-1.4a2.43,2.43,0,0,0,.28-1.11c.06-.81.41-.87,1.13-.67a12.83,12.83,0,0,1,5,2.44A5.35,5.35,0,0,1,113.13,75.24Z"/><path class="cls-3" d="M110.32,154.54a6.56,6.56,0,0,0-2.28-1.75.41.41,0,0,1-.27-.61,12.41,12.41,0,0,1,3.16-5.2,4.07,4.07,0,0,1,2.74-1.09C112.24,148.68,111.82,151.74,110.32,154.54Z"/><path class="cls-3" d="M91.7,57.92c3,0,5.92-.71,8.9,0a10.29,10.29,0,0,0-1.17,2.67c-.07.35-.26.46-.61.42a15.65,15.65,0,0,1-5-1A3.9,3.9,0,0,1,91.7,57.92Z"/><path class="cls-3" d="M94.06,165.33A65.51,65.51,0,0,0,95.75,159c.15-.56.35-.7.92-.53a11.7,11.7,0,0,0,1.79.27c.48.05.77.33.63.76-.72,2.1-1.5,4.18-3.52,5.43A2.78,2.78,0,0,1,94.06,165.33Z"/><path class="cls-3" d="M107.6,149.14c-.37.88-.7,1.63-1,2.39a1.15,1.15,0,0,1-1.8.38c-.74-.65-.74-1,0-1.65A4.24,4.24,0,0,1,107.6,149.14Z"/><path class="cls-3" d="M106.83,67c.3-.33.6-.62.85-.94.81-1,.87-1,1.6.12a5,5,0,0,1,.4.76c.13.35.23.73.4,1.28Z"/><path class="cls-3" d="M74.61,179A2.66,2.66,0,0,1,73,177.5c-.42-.88,0-1.52.79-2.06a13.29,13.29,0,0,0,.8,3.6Z"/><path class="cls-3" d="M129.16,180a5.49,5.49,0,0,1-2.08.54,1.25,1.25,0,0,1-1.17-.49c-.16-.22-.37-.51-.17-.78s.41,0,.61.06Z"/><path class="cls-3" d="M101.29,161.23a2.38,2.38,0,0,1-1.58.45l.43-1.21Z"/><polygon class="cls-3" points="74.61 179.03 74.64 179.06 74.61 179.04 74.61 179.03"/><path class="cls-3" d="M135.66,140.5h0Z"/><path class="cls-3" d="M57.62,107.61a6.72,6.72,0,0,1-3.71-1,5.54,5.54,0,0,1-2.13-2.55,8.82,8.82,0,0,1-.67-3.46,14.42,14.42,0,0,1,1.39-5.93,16.32,16.32,0,0,1,2.75-4.09,14.36,14.36,0,0,1,3.86-3,9.79,9.79,0,0,1,4.59-1.15,7.43,7.43,0,0,1,3,.51,3.87,3.87,0,0,1,1.72,1.4A3.4,3.4,0,0,1,69,90.23a4.17,4.17,0,0,1-.78,2.42,3.59,3.59,0,0,1-1.84,1.44h0l-.12,0-.07,0h0a1,1,0,0,1-.26,0v-.84l0-.06,0,0v-.13h0l.07.1,0-.11a2,2,0,0,0,.71-.85,3.51,3.51,0,0,0,.4-1.63,2.41,2.41,0,0,0-.69-1.66,3.74,3.74,0,0,0-2.71-.74,7.31,7.31,0,0,0-3.64,1A12.23,12.23,0,0,0,56.71,92a15.67,15.67,0,0,0-2.36,3.68,12.25,12.25,0,0,0-1.13,5,5.9,5.9,0,0,0,1.07,3.57,3.84,3.84,0,0,0,3.33,1.38,6.3,6.3,0,0,0,2.86-.77,19.22,19.22,0,0,0,3.16-2.1,40.06,40.06,0,0,0,3.17-2.88l2-2.07L67.69,98c-.77.12-1.53.27-2.25.45l-.06,0h-.2a.85.85,0,0,1-.91-.91,1.06,1.06,0,0,1,.23-.66,1,1,0,0,1,.71-.43c1.62-.26,3.41-.49,5.31-.67,3.69-4.36,6.69-7.84,8.92-10.35s4.14-4.17,5.56-4.78a4.28,4.28,0,0,1,1.72-.39c1.17,0,1.26.75,1.26,1,0,.48-.34,1-1.08,1.77a19,19,0,0,0-2.46,3.33A39,39,0,0,0,82.05,91a40.06,40.06,0,0,0-1.64,4.42h.33l.42,0a1.31,1.31,0,0,1,.8.35,1,1,0,0,1,.32.7.91.91,0,0,1-1,.92l-.8,0-.5,0a17.59,17.59,0,0,0-.47,3.82c0,.3,0,.6,0,.89a6.6,6.6,0,0,0,.5,2.16c0,.07.14.31.24.31s.29,0,.92-.81a1.23,1.23,0,0,1,.91-.5.82.82,0,0,1,.7.38.91.91,0,0,1,0,.93,2.76,2.76,0,0,1-2.48,1.83,2.41,2.41,0,0,1-1.68-.76,4.27,4.27,0,0,1-1.06-2.26,11.71,11.71,0,0,1-.21-2.28A18.63,18.63,0,0,1,77.47,99c.06-.53.14-1.08.25-1.64l-2.58,0c-1.11,0-2.23.07-3.33.17l-.06.06a.87.87,0,0,0-.14.12c-.91,1-2,2.12-3.07,3.26A46.5,46.5,0,0,1,65,104.18a20.76,20.76,0,0,1-3.72,2.46A8.18,8.18,0,0,1,57.62,107.61Zm25.9-23.74a35.39,35.39,0,0,0-2.45,2.63c-1.94,2.28-4.5,5.32-7.59,9l2.18-.09,2.52-.07a31.87,31.87,0,0,1,1.62-4.7A42.54,42.54,0,0,1,82.14,86C82.62,85.24,83.08,84.52,83.52,83.87Z"/><path class="cls-3" d="M97.88,121.77a3,3,0,0,1-1.85-.61,4,4,0,0,1-1.23-1.54,4.49,4.49,0,0,1-.44-1.92,6.32,6.32,0,0,1,.65-2.8,11.33,11.33,0,0,1,1.65-2.47,25,25,0,0,1,2-2.08v-.24a8.83,8.83,0,0,1,.16-1.47,13.34,13.34,0,0,1,.5-1.78,9.47,9.47,0,0,1,.81-1.73,4.87,4.87,0,0,1,1.13-1.31,2.22,2.22,0,0,1,1.43-.51,1.51,1.51,0,0,1,1.16.46,1.62,1.62,0,0,1,.44,1.17,2.73,2.73,0,0,1-.54,1.56,10,10,0,0,1-1.35,1.57c-.54.51-1.09,1-1.63,1.44s-1,.84-1.34,1.19c.07.41.14.83.2,1.25s.14.84.24,1.26a6.38,6.38,0,0,1,1-1.18,5.91,5.91,0,0,1,1.33-1,2.9,2.9,0,0,1,1.43-.4,2,2,0,0,1,1.25.4,2.49,2.49,0,0,1,.76,1,3.39,3.39,0,0,1,.25,1.31,4.91,4.91,0,0,1-.25,1.46,10.82,10.82,0,0,1-.66,1.6,15.86,15.86,0,0,1-.87,1.52,10.44,10.44,0,0,1-.88,1.2c.07.07.2.19.39.35l.58.53c.2.19.38.37.53.53a.76.76,0,0,1,.22.35.37.37,0,0,1,0,.11.12.12,0,0,1-.12.06.84.84,0,0,1-.32-.2l-.58-.51-.6-.55c-.19-.17-.31-.28-.37-.32a7.37,7.37,0,0,1-2.26,1.67A6.29,6.29,0,0,1,97.88,121.77Zm0-.66a5.76,5.76,0,0,0,2.47-.55,7,7,0,0,0,2.06-1.5,11.35,11.35,0,0,1-1.71-2,9.92,9.92,0,0,1-1.15-2.33,3.6,3.6,0,0,0-.29.9,6.61,6.61,0,0,0-.06.93,1.16,1.16,0,0,1,0,.28.21.21,0,0,1-.2.2.25.25,0,0,1-.17-.21,1.69,1.69,0,0,1,0-.3,5.07,5.07,0,0,1,.59-2.39c-.13-.46-.25-.92-.35-1.38s-.18-.92-.24-1.37a20.94,20.94,0,0,0-1.59,1.85,12.19,12.19,0,0,0-1.37,2.22,5.35,5.35,0,0,0-.56,2.33,4,4,0,0,0,.31,1.52,3.14,3.14,0,0,0,.9,1.27A2.11,2.11,0,0,0,97.88,121.11Zm1.58-11.46c.28-.25.65-.56,1.12-.93s1-.76,1.42-1.18a9,9,0,0,0,1.21-1.3,2.08,2.08,0,0,0,.5-1.21.91.91,0,0,0-.3-.68,1,1,0,0,0-.67-.29,1.46,1.46,0,0,0-1,.44,5,5,0,0,0-.88,1.13,9.55,9.55,0,0,0-.7,1.48c-.2.52-.36,1-.49,1.46A8.24,8.24,0,0,0,99.46,109.65Zm3.28,9a11.26,11.26,0,0,0,1-1.47,10.34,10.34,0,0,0,.88-1.8,4.74,4.74,0,0,0,.35-1.7,3.38,3.38,0,0,0-.18-1.07,2.21,2.21,0,0,0-.57-.89,1.46,1.46,0,0,0-1-.35,2.17,2.17,0,0,0-1.19.4,7.18,7.18,0,0,0-1.17,1,9.12,9.12,0,0,0-.85,1,11.92,11.92,0,0,0,1,2.63A9.79,9.79,0,0,0,102.74,118.69Z"/><path class="cls-3" d="M123.86,107.07a6.22,6.22,0,0,1-4.63-1.65,5.69,5.69,0,0,1-1.63-4.16,5.38,5.38,0,0,1,.75-2.67,8.61,8.61,0,0,1,2-2.29,6.83,6.83,0,0,1,2.64-1.4H123l0,0,.19,0a1,1,0,0,1,1.05,1,1,1,0,0,1-.72.95A4.93,4.93,0,0,1,123,97a1.66,1.66,0,0,0-.37.16,6.37,6.37,0,0,0-1.9,1.59,4.51,4.51,0,0,0-1,2,1,1,0,0,0,0,.21v.32a3.53,3.53,0,0,0,1.08,2.7,4.23,4.23,0,0,0,3.08,1,9.15,9.15,0,0,0,3.62-.73,12.68,12.68,0,0,0,3.13-2,20,20,0,0,0,2.61-2.68,27.86,27.86,0,0,0,2-2.82l.18-.28-1.27.06c-.73,0-1.45.06-2.18.06a7.72,7.72,0,0,1-1.1-.09,3.17,3.17,0,0,1-1.22-.44A1.39,1.39,0,0,1,129,95a2.06,2.06,0,0,1,.65-1.32,1.92,1.92,0,0,1,1.4-.73,1,1,0,0,1,1.05,1,.89.89,0,0,1-.38.76l.33,0q1.2,0,2.37-.09l2.06-.16c.67-1.57,1.28-3.19,1.81-4.83s1-3.17,1.37-4.74c-1.67-.48-3.47-.94-5.36-1.38a26.18,26.18,0,0,0-5.87-.71,19.22,19.22,0,0,0-2,.1,8.59,8.59,0,0,0-1.58.39,8.31,8.31,0,0,0-1.66.76,5,5,0,0,0-1.24,1,1.76,1.76,0,0,0-.42,1.13,1.69,1.69,0,0,0,.65,1.3,2.37,2.37,0,0,0,1.58.58,1,1,0,1,1,0,2,4.87,4.87,0,0,1-2.12-.48A4.2,4.2,0,0,1,120,88.26a3.31,3.31,0,0,1-.63-2,3.55,3.55,0,0,1,.7-2.12,6.91,6.91,0,0,1,1.7-1.61A10.61,10.61,0,0,1,124,81.46a9.3,9.3,0,0,1,2.23-.55,18.67,18.67,0,0,1,2-.1,29.08,29.08,0,0,1,6.32.73c2,.44,3.85.93,5.58,1.45l0-.09c.07-.23.14-.44.21-.62a1.1,1.1,0,0,1,1-.68,1.2,1.2,0,0,1,.7.21.88.88,0,0,1,.38.74,2.72,2.72,0,0,1-.14.87c0,.09-.05.17-.07.25l2.15.72c1,.34,2.11.68,3.25,1s2.21.63,3.23.87a11.49,11.49,0,0,0,2.51.35,3.85,3.85,0,0,0,1.27-.2,1.21,1.21,0,0,0,.7-.64,2,2,0,0,1,.3-.4,1,1,0,0,1,.7-.25,1.26,1.26,0,0,1,.72.23.88.88,0,0,1,.43.76v.08l0,.17v.09l0,0a3.08,3.08,0,0,1-1.49,1.6,4.6,4.6,0,0,1-2.18.54,12.87,12.87,0,0,1-2.81-.39c-1.08-.26-2.25-.57-3.46-.94s-2.37-.74-3.47-1.11c-.87-.3-1.61-.53-2.23-.72-.41,1.54-.83,3.07-1.27,4.55A39.53,39.53,0,0,1,139,94.25l1.36-.12c.76-.07,1.51-.1,2.23-.1a1,1,0,0,1,1.08,1,1,1,0,0,1-1.08,1c-.69,0-1.5,0-2.39.13s-1.53.15-2.2.19a31.05,31.05,0,0,1-2.13,3.44,23.77,23.77,0,0,1-3.14,3.54,15.78,15.78,0,0,1-4,2.69A11.14,11.14,0,0,1,123.86,107.07Z"/></svg>
