<?xml version="1.0" encoding="UTF-8"?>
<!DOCTYPE svg PUBLIC "-//W3C//DTD SVG 1.1//EN" "http://www.w3.org/Graphics/SVG/1.1/DTD/svg11.dtd">
<svg xmlns="http://www.w3.org/2000/svg" version="1.1" width="512px" height="512px" style="shape-rendering:geometricPrecision; text-rendering:geometricPrecision; image-rendering:optimizeQuality; fill-rule:evenodd; clip-rule:evenodd" xmlns:xlink="http://www.w3.org/1999/xlink">
<g><path style="opacity:0.914" fill="currentcolor" d="M 262.5,43.5 C 265.685,43.0196 268.519,43.6863 271,45.5C 272.028,48.9103 272.528,52.4103 272.5,56C 271.7,65.8356 270.866,75.6689 270,85.5C 266.911,90.3055 262.744,91.4722 257.5,89C 256.299,88.0975 255.465,86.9308 255,85.5C 253.061,75.8554 253.061,66.1887 255,56.5C 256.503,51.4813 259.003,47.1479 262.5,43.5 Z"/></g>
<g><path style="opacity:0.911" fill="currentcolor" d="M 174.5,56.5 C 177.807,56.0632 180.807,56.7298 183.5,58.5C 189.5,69.1705 196,79.5038 203,89.5C 207.937,99.8071 204.771,104.64 193.5,104C 176.947,92.0849 170.613,76.2516 174.5,56.5 Z"/></g>
<g><path style="opacity:0.908" fill="currentcolor" d="M 342.5,56.5 C 350.924,54.101 354.424,57.101 353,65.5C 349.588,74.4744 344.088,81.9744 336.5,88C 330.859,91.7157 325.692,91.2157 321,86.5C 319.97,81.7205 320.97,77.3871 324,73.5C 329.135,66.524 335.302,60.8574 342.5,56.5 Z"/></g>
<g><path style="opacity:0.915" fill="currentcolor" d="M 280.5,107.5 C 322.763,99.1956 350.596,115.196 364,155.5C 367.318,165.241 367.651,174.908 365,184.5C 360.069,188.849 356.402,187.849 354,181.5C 351.363,172.65 349.363,163.65 348,154.5C 343.16,135.326 330.994,124.159 311.5,121C 306.337,120.467 301.17,119.967 296,119.5C 274.177,120.86 252.344,122.027 230.5,123C 202.333,124.5 187.5,139.333 186,167.5C 185.667,174.833 185.333,182.167 185,189.5C 182.374,193.072 179.374,193.405 176,190.5C 171.561,170.318 173.894,150.985 183,132.5C 191.345,121.236 202.512,114.402 216.5,112C 237.949,110.104 259.282,108.604 280.5,107.5 Z"/></g>
<g><path style="opacity:0.926" fill="currentcolor" d="M 402.5,152.5 C 420.417,151.561 436.75,156.061 451.5,166C 457.218,171.436 460.551,178.103 461.5,186C 460.923,189.649 459.589,192.983 457.5,196C 474.924,200.429 485.091,211.596 488,229.5C 488.886,234.47 489.552,239.47 490,244.5C 493.039,307.971 495.206,371.471 496.5,435C 496.349,441.195 495.849,447.362 495,453.5C 491.869,462.825 485.369,467.992 475.5,469C 441.791,468.426 408.124,466.759 374.5,464C 366.551,463.688 359.718,460.855 354,455.5C 353.798,453.744 353.298,452.078 352.5,450.5C 326.342,463.997 298.509,470.664 269,470.5C 242.559,470.178 217.059,465.178 192.5,455.5C 188.864,459.723 184.198,461.557 178.5,461C 154.447,461.632 130.447,461.132 106.5,459.5C 101.698,460.256 96.8644,460.922 92,461.5C 79.1669,460.773 66.3335,459.94 53.5,459C 41.1421,456.638 34.3088,449.138 33,436.5C 25.2939,376.36 19.6272,316.026 16,255.5C 15.1618,245.122 15.4952,234.788 17,224.5C 21.6514,208.247 32.4847,200.414 49.5,201C 55.5698,182.466 67.9031,176.466 86.5,183C 91.7218,185.621 94.2218,189.787 94,195.5C 93.2613,196.574 92.2613,197.241 91,197.5C 85.9657,194.711 80.6323,192.711 75,191.5C 69.0078,191.996 64.8411,194.996 62.5,200.5C 76.8222,200.801 91.1556,200.134 105.5,198.5C 105.569,186.6 111.236,178.767 122.5,175C 138.542,173.21 148.875,180.043 153.5,195.5C 159.782,194.374 166.115,194.207 172.5,195C 173.249,196.734 173.749,198.567 174,200.5C 191.368,190.101 210.201,184.434 230.5,183.5C 230.239,175.918 233.906,171.418 241.5,170C 278.89,159.151 313.89,164.151 346.5,185C 351.467,188.966 356.134,193.299 360.5,198C 364.462,197.895 368.462,197.561 372.5,197C 365.408,170.69 375.408,155.857 402.5,152.5 Z M 406.5,159.5 C 419.275,159.053 430.608,162.887 440.5,171C 448.4,177.467 450.733,185.634 447.5,195.5C 428.497,195.667 409.497,195.5 390.5,195C 383.125,184.284 384.459,174.618 394.5,166C 398.2,163.098 402.2,160.932 406.5,159.5 Z M 126.5,186.5 C 133.549,185.716 138.549,188.549 141.5,195C 134.835,196.374 128.001,197.207 121,197.5C 119.167,197.167 117.333,196.833 115.5,196.5C 117.964,191.696 121.631,188.363 126.5,186.5 Z M 271.5,186.5 C 282.933,186.138 294.267,186.971 305.5,189C 300.88,194.408 296.38,199.908 292,205.5C 291.508,207.825 292.508,209.158 295,209.5C 295.833,209.333 296.667,209.167 297.5,209C 302.785,202.577 308.618,196.744 315,191.5C 326.275,195.883 336.108,202.383 344.5,211C 336.403,215.596 329.736,221.763 324.5,229.5C 298.969,206.692 270.303,201.192 238.5,213C 245.92,205.584 252.587,197.584 258.5,189C 262.94,188.034 267.273,187.201 271.5,186.5 Z M 201.5,228.5 C 206.092,221.816 209.759,214.65 212.5,207C 211.431,202.874 209.264,202.374 206,205.5C 178.098,243.632 151.431,282.632 126,322.5C 123.44,273.117 142.94,235.283 184.5,209C 201.11,201.576 217.943,194.742 235,188.5C 237.069,189.264 239.236,189.764 241.5,190C 233.413,197.678 226.913,206.511 222,216.5C 215.029,220.397 208.196,224.397 201.5,228.5 Z M 166.5,204.5 C 130.069,233.171 112.069,271.004 112.5,318C 112.738,368.467 132.072,409.8 170.5,442C 146.166,442.535 121.832,443.035 97.5,443.5C 90.8115,395.037 81.6449,347.037 70,299.5C 67.8471,297.556 65.3471,297.056 62.5,298C 61.1059,298.956 60.4393,300.289 60.5,302C 67.7347,349.143 74.7347,396.31 81.5,443.5C 73.463,444.952 65.463,444.785 57.5,443C 53.1832,440.685 50.3498,437.185 49,432.5C 44.0006,385.505 39.0006,338.505 34,291.5C 32.1648,269.456 32.1648,247.456 34,225.5C 37.0577,220.577 41.5577,218.077 47.5,218C 87.6717,217.667 127.338,213.167 166.5,204.5 Z M 368.5,206.5 C 368.56,205.957 368.893,205.624 369.5,205.5C 394.08,208.41 418.747,209.077 443.5,207.5C 451.982,207.39 459.982,209.223 467.5,213C 470.04,215.205 472.207,217.705 474,220.5C 476.077,232.387 477.244,244.387 477.5,256.5C 475.385,316.837 475.718,377.17 478.5,437.5C 479.314,442.749 477.981,447.249 474.5,451C 467.159,451.222 459.826,450.889 452.5,450C 423.354,445.19 394.021,442.523 364.5,442C 398.742,413.168 415.742,376.168 415.5,331C 414.42,283.727 398.754,242.227 368.5,206.5 Z M 241.5,219.5 C 244.073,222.466 247.406,224.466 251.5,225.5C 280.045,222.022 303.878,231.022 323,252.5C 350.065,285.765 359.065,323.432 350,365.5C 339.304,397.858 317.138,417.025 283.5,423C 240.073,428.029 205.24,413.196 179,378.5C 157.225,343.361 155.892,307.361 175,270.5C 191.357,245.907 213.523,228.907 241.5,219.5 Z M 351.5,219.5 C 355.421,222.591 358.921,226.258 362,230.5C 367.23,238.069 372.063,245.902 376.5,254C 374.754,254.471 373.087,255.138 371.5,256C 366.218,261.405 361.051,266.905 356,272.5C 350.122,259.63 342.288,248.13 332.5,238C 339.337,232.329 345.671,226.162 351.5,219.5 Z M 441.5,250.5 C 447.327,249.962 452.827,250.962 458,253.5C 458.336,260.108 455.169,262.608 448.5,261C 443.935,258.944 441.602,255.444 441.5,250.5 Z M 379.5,261.5 C 384.405,269.686 388.071,278.519 390.5,288C 387.468,293.044 383.634,297.544 379,301.5C 375.995,305.997 372.828,310.331 369.5,314.5C 367.412,303.737 364.412,293.237 360.5,283C 367.737,276.599 374.07,269.432 379.5,261.5 Z M 285.5,290.5 C 308.389,291.886 316.556,303.553 310,325.5C 300.167,344.667 285.667,359.167 266.5,369C 260.497,372.252 254.331,375.086 248,377.5C 234.463,368.302 221.796,357.969 210,346.5C 200.561,333.553 199.227,319.886 206,305.5C 214.883,295.238 225.716,292.404 238.5,297C 244.047,300.279 249.047,304.279 253.5,309C 259.869,311.563 263.369,309.396 264,302.5C 269.996,296.255 277.163,292.255 285.5,290.5 Z M 154.5,299.5 C 153.724,306.984 153.057,314.484 152.5,322C 153.236,329.85 153.736,337.684 154,345.5C 147.11,352.318 140.943,359.651 135.5,367.5C 131.488,357.618 128.488,347.451 126.5,337C 129.216,333.739 132.049,330.572 135,327.5C 141.276,317.926 147.776,308.592 154.5,299.5 Z M 335.5,438.5 C 348.656,418.862 361.823,399.195 375,379.5C 379.88,372.524 382.547,364.858 383,356.5C 381.062,354.022 378.895,353.855 376.5,356C 372.967,359.72 369.634,362.887 366.5,365.5C 370.091,350.664 371.258,335.664 370,320.5C 372.284,322.984 374.784,323.151 377.5,321C 383,314.833 388.5,308.667 394,302.5C 402.157,345.677 392.157,384.011 364,417.5C 355.775,426.349 346.275,433.349 335.5,438.5 Z M 176.5,394.5 C 171.607,393.309 167.774,394.976 165,399.5C 162.746,403.007 160.746,406.673 159,410.5C 151.58,401.337 145.413,391.337 140.5,380.5C 146.522,373.646 152.355,366.646 158,359.5C 162.606,372.049 168.773,383.715 176.5,394.5 Z M 178.5,397.5 C 185.528,405.86 193.528,413.194 202.5,419.5C 196.511,423.823 191.178,428.823 186.5,434.5C 178.478,429.985 171.478,424.152 165.5,417C 171.739,411.627 176.072,405.127 178.5,397.5 Z M 328.5,422.5 C 326.344,426.811 324.178,431.145 322,435.5C 320.877,438.956 321.71,441.79 324.5,444C 313.919,448.898 302.919,451.398 291.5,451.5C 296.357,445.811 301.023,439.978 305.5,434C 313.472,430.681 321.139,426.847 328.5,422.5 Z M 212.5,425.5 C 219.982,429.218 227.649,432.551 235.5,435.5C 232.302,440.201 229.302,445.034 226.5,450C 217.15,448.775 208.15,446.108 199.5,442C 204.429,436.912 208.762,431.412 212.5,425.5 Z M 249.5,438.5 C 260.893,439.568 272.226,439.735 283.5,439C 279.833,444 276.167,449 272.5,454C 268.833,454.167 265.167,454.333 261.5,454.5C 253.96,454.647 246.626,453.814 239.5,452C 243.436,447.904 246.77,443.404 249.5,438.5 Z"/></g>
<g><path style="opacity:0.876" fill="currentcolor" d="M 443.5,238.5 C 462.445,237.043 468.945,245.377 463,263.5C 457.564,270.44 450.731,272.274 442.5,269C 434.244,263.9 431.744,256.734 435,247.5C 437.387,244.043 440.22,241.043 443.5,238.5 Z M 441.5,250.5 C 441.602,255.444 443.935,258.944 448.5,261C 455.169,262.608 458.336,260.108 458,253.5C 452.827,250.962 447.327,249.962 441.5,250.5 Z"/></g>
<g><path style="opacity:0.919" fill="currentcolor" d="M 279.5,277.5 C 295.957,274.708 309.791,279.374 321,291.5C 329.779,307.564 329.445,323.564 320,339.5C 304.75,364.705 283.25,382.205 255.5,392C 251.833,392.667 248.167,392.667 244.5,392C 242.338,390.355 241.005,388.188 240.5,385.5C 212.682,378.846 194.848,361.846 187,334.5C 182.792,309.408 192.292,291.908 215.5,282C 231.465,277.991 245.465,281.491 257.5,292.5C 263.25,285.068 270.583,280.068 279.5,277.5 Z M 285.5,290.5 C 277.163,292.255 269.996,296.255 264,302.5C 263.369,309.396 259.869,311.563 253.5,309C 249.047,304.279 244.047,300.279 238.5,297C 225.716,292.404 214.883,295.238 206,305.5C 199.227,319.886 200.561,333.553 210,346.5C 221.796,357.969 234.463,368.302 248,377.5C 254.331,375.086 260.497,372.252 266.5,369C 285.667,359.167 300.167,344.667 310,325.5C 316.556,303.553 308.389,291.886 285.5,290.5 Z"/></g>
</svg>
